<svg width="22" height="20" viewBox="0 0 22 20" fill="none" xmlns="http://www.w3.org/2000/svg">
<path fill-rule="evenodd" clip-rule="evenodd" d="M0 5H6.63542V6.7403H1.625V18.2597H20.0417V6.7403H15.0312V5H21.6667V20H0V5Z" fill="white"/>
<path fill-rule="evenodd" clip-rule="evenodd" d="M10 16.6667L10 5.72205e-06L11.6667 5.50349e-06L11.6667 16.6667L10 16.6667Z" fill="white"/>
<path fill-rule="evenodd" clip-rule="evenodd" d="M11.6666 15.8464C11.6666 12.6255 8.83955 10 5.82023 10L4.99996 10L4.99996 11.6406L5.82023 11.6406C7.96861 11.6406 10.0261 13.5662 10.0261 15.8464L10.0261 16.6667L11.6666 16.6667L11.6666 15.8464Z" fill="white"/>
<path fill-rule="evenodd" clip-rule="evenodd" d="M10 15.8464C10 12.6255 12.8271 10 15.8464 10L16.6667 10L16.6667 11.6406L15.8464 11.6406C13.698 11.6406 11.6406 13.5662 11.6406 15.8464L11.6406 16.6667L10 16.6667L10 15.8464Z" fill="white"/>
</svg>
