<svg width="20" height="20" viewBox="0 0 20 20" fill="none" xmlns="http://www.w3.org/2000/svg">
<g clip-path="url(#clip0_2_395)">
<path d="M2.57167 14.5908C2.64315 14.2661 2.61587 13.9274 2.49334 13.6183C1.64065 11.8491 1.44022 9.83562 1.92742 7.93304C2.41462 6.03046 3.55813 4.36109 5.15621 3.21946C6.75429 2.07783 8.70423 1.5373 10.662 1.69326C12.6198 1.84921 14.4595 2.69161 15.8567 4.07184C17.2539 5.45207 18.1187 7.28142 18.2986 9.23713C18.4784 11.1928 17.9618 13.1492 16.8398 14.7611C15.7177 16.3731 14.0625 17.5369 12.166 18.0473C10.2695 18.5577 8.25366 18.3819 6.47417 17.5508C6.18211 17.44 5.86477 17.4134 5.55834 17.4742L2.71417 18.3058C2.57697 18.3423 2.43275 18.343 2.29517 18.3081C2.1576 18.2731 2.03123 18.2036 1.92806 18.1061C1.82489 18.0086 1.74834 17.8863 1.70565 17.751C1.66297 17.6156 1.65558 17.4715 1.68417 17.3325L2.57167 14.5908Z" stroke="#0079C1" stroke-width="1.66667" stroke-linecap="round" stroke-linejoin="round"/>
</g>
<defs>
<clipPath id="clip0_2_395">
<rect width="20" height="20" fill="white"/>
</clipPath>
</defs>
</svg>
