<svg width="14" height="14" viewBox="0 0 14 14" fill="none" xmlns="http://www.w3.org/2000/svg">
<g clip-path="url(#clip0_2_538)">
<path d="M6.4266 1.64127C6.45159 1.50745 6.5226 1.38659 6.62732 1.29962C6.73204 1.21265 6.86388 1.16504 7.00001 1.16504C7.13614 1.16504 7.26798 1.21265 7.37271 1.29962C7.47743 1.38659 7.54844 1.50745 7.57343 1.64127L8.18651 4.88344C8.23006 5.11394 8.34207 5.32596 8.50795 5.49184C8.67382 5.65771 8.88584 5.76973 9.11635 5.81327L12.3585 6.42635C12.4923 6.45135 12.6132 6.52235 12.7002 6.62708C12.7871 6.7318 12.8347 6.86364 12.8347 6.99977C12.8347 7.1359 12.7871 7.26774 12.7002 7.37246C12.6132 7.47718 12.4923 7.54819 12.3585 7.57319L9.11635 8.18627C8.88584 8.22981 8.67382 8.34183 8.50795 8.5077C8.34207 8.67358 8.23006 8.8856 8.18651 9.1161L7.57343 12.3583C7.54844 12.4921 7.47743 12.6129 7.37271 12.6999C7.26798 12.7869 7.13614 12.8345 7.00001 12.8345C6.86388 12.8345 6.73204 12.7869 6.62732 12.6999C6.5226 12.6129 6.45159 12.4921 6.4266 12.3583L5.81351 9.1161C5.76997 8.8856 5.65795 8.67358 5.49208 8.5077C5.32621 8.34183 5.11418 8.22981 4.88368 8.18627L1.64151 7.57319C1.5077 7.54819 1.38684 7.47718 1.29987 7.37246C1.21289 7.26774 1.16528 7.1359 1.16528 6.99977C1.16528 6.86364 1.21289 6.7318 1.29987 6.62708C1.38684 6.52235 1.5077 6.45135 1.64151 6.42635L4.88368 5.81327C5.11418 5.76973 5.32621 5.65771 5.49208 5.49184C5.65795 5.32596 5.76997 5.11394 5.81351 4.88344L6.4266 1.64127Z" stroke="#0079C1" stroke-width="1.16667" stroke-linecap="round" stroke-linejoin="round"/>
<path d="M11.6667 1.1665V3.49984" stroke="#0079C1" stroke-width="1.16667" stroke-linecap="round" stroke-linejoin="round"/>
<path d="M12.8333 2.3335H10.5" stroke="#0079C1" stroke-width="1.16667" stroke-linecap="round" stroke-linejoin="round"/>
<path d="M2.33335 12.8333C2.97769 12.8333 3.50002 12.311 3.50002 11.6667C3.50002 11.0223 2.97769 10.5 2.33335 10.5C1.68902 10.5 1.16669 11.0223 1.16669 11.6667C1.16669 12.311 1.68902 12.8333 2.33335 12.8333Z" stroke="#0079C1" stroke-width="1.16667" stroke-linecap="round" stroke-linejoin="round"/>
</g>
<defs>
<clipPath id="clip0_2_538">
<rect width="14" height="14" fill="white"/>
</clipPath>
</defs>
</svg>
