<svg width="98" height="89" viewBox="0 0 98 89" fill="none" xmlns="http://www.w3.org/2000/svg">
<g clip-path="url(#clip0_2_696)">
<path d="M97.8548 88.6201H0.145172V88.9999H97.8548V88.6201Z" fill="#0095DA"/>
<path d="M97.8548 74.7666H0.145172V75.1464H97.8548V74.7666Z" fill="#0095DA"/>
<path d="M7.0687 65.6328L6.23389 66.5009H6.50611L7.29555 65.9312H7.3137L8.10315 66.5009H8.39352L7.54963 65.6328H7.0687Z" fill="#0095DA"/>
<path d="M8.82907 65.0273L8.10315 65.8322H8.48426L9.45519 65.0273H8.82907Z" fill="#0095DA"/>
<path d="M53.2285 65.2441L51.9128 66.3474H51.3865L52.3846 65.2441H53.2285Z" fill="#0095DA"/>
<path d="M22.0319 66.3842C22.1226 66.0587 22.3948 65.9502 22.3948 65.6789C22.3948 65.5252 22.2859 65.4257 22.1407 65.4257C21.9865 65.4257 21.9683 65.6789 21.7959 65.7151C21.5872 65.7603 21.5328 65.5342 21.5328 65.5342C21.6598 65.272 21.8867 65.0459 22.2496 65.0459C22.6126 65.0459 22.8757 65.272 22.8757 65.5975C22.8757 66.0135 22.422 66.0677 22.2043 66.4566L22.0228 66.3842H22.0319Z" fill="#0095DA"/>
<path d="M73.5 66.3842C73.5817 66.0587 73.863 65.9502 73.863 65.6789C73.863 65.5252 73.7541 65.4257 73.6089 65.4257C73.4546 65.4257 73.4365 65.6789 73.2641 65.7151C73.0554 65.7603 73.0009 65.5342 73.0009 65.5342C73.128 65.272 73.3548 65.0459 73.7178 65.0459C74.0807 65.0459 74.3439 65.272 74.3439 65.5975C74.3439 66.0135 73.8811 66.0677 73.6724 66.4566L73.5 66.3842Z" fill="#0095DA"/>
<path d="M91.7843 72.5964C91.7843 72.8406 91.6118 73.0486 91.3487 73.0486C91.0856 73.0486 90.9131 72.8406 90.9131 72.5964C90.9131 72.3523 91.1037 72.1533 91.3578 72.1533C91.6118 72.1533 91.7843 72.3523 91.7843 72.5964Z" fill="#0095DA"/>
<path d="M5.29018 65.6328V66.0126H3.13963V71.5378H2.15056V66.0126H0V65.6328H5.29018Z" fill="#0095DA"/>
<path d="M7.93073 68.8888C7.80369 68.9341 7.66758 68.9793 7.5224 69.0335C7.38628 69.0878 7.2411 69.142 7.10499 69.2144C6.96888 69.2777 6.84184 69.35 6.72388 69.4314C6.60591 69.5038 6.49702 69.5851 6.40628 69.6756C6.31554 69.766 6.24295 69.8564 6.18851 69.9559C6.13406 70.0554 6.10684 70.1548 6.10684 70.2634C6.10684 70.3719 6.12499 70.4804 6.17036 70.5799C6.21573 70.6793 6.27017 70.7698 6.33369 70.8421C6.40628 70.9144 6.47888 70.9777 6.56962 71.0139C6.66036 71.0591 6.7511 71.0863 6.85091 71.0863C6.95073 71.0863 7.05054 71.0682 7.14128 71.0501C7.23202 71.023 7.32277 70.9868 7.40443 70.9416C7.49517 70.8964 7.57684 70.8421 7.66758 70.7788C7.75832 70.7155 7.83999 70.6522 7.93073 70.5889V68.8888ZM8.83814 71.5384H7.93073V70.9144C7.82184 70.9958 7.71295 71.0772 7.61314 71.1676C7.50425 71.249 7.39536 71.3304 7.2774 71.4028C7.15943 71.4751 7.02332 71.5294 6.87814 71.5746C6.73295 71.6198 6.56054 71.6379 6.36999 71.6379C6.19758 71.6379 6.03425 71.6108 5.88906 71.5475C5.74388 71.4932 5.62591 71.4118 5.51702 71.3123C5.41721 71.2038 5.33554 71.0953 5.2811 70.9506C5.22665 70.815 5.19943 70.6612 5.19943 70.4985C5.19943 70.2995 5.23573 70.1277 5.3174 69.974C5.39906 69.8203 5.49888 69.6756 5.63499 69.549C5.7711 69.4224 5.92536 69.3139 6.10684 69.2144C6.28832 69.1149 6.47888 69.0335 6.67851 68.9521C6.87814 68.8798 7.08684 68.8075 7.30462 68.7442C7.5224 68.6809 7.7311 68.6266 7.93073 68.5814V68.3011C7.93073 68.0931 7.91258 67.9213 7.86721 67.7766C7.83091 67.6319 7.76739 67.5234 7.6948 67.4329C7.61314 67.3425 7.5224 67.2792 7.41351 67.243C7.30462 67.2069 7.17758 67.1888 7.05054 67.1888C6.89628 67.1888 6.76925 67.2069 6.67851 67.2521C6.58777 67.2883 6.5061 67.3425 6.45165 67.4058C6.39721 67.4691 6.36091 67.5415 6.34277 67.6319C6.32462 67.7133 6.31554 67.8037 6.31554 67.8851C6.31554 67.9665 6.31554 68.0388 6.2974 68.1112C6.27925 68.1835 6.2611 68.2468 6.2248 68.3011C6.18851 68.3553 6.14314 68.4005 6.08869 68.4367C6.02517 68.4729 5.95258 68.491 5.86184 68.491C5.78925 68.491 5.72573 68.4819 5.67128 68.4548C5.61684 68.4277 5.5624 68.3915 5.51702 68.3372C5.47165 68.292 5.44443 68.2378 5.41721 68.1654C5.38999 68.1021 5.38091 68.0298 5.38091 67.9574C5.38091 67.8037 5.43536 67.6681 5.53517 67.5415C5.63499 67.4149 5.7711 67.2973 5.93443 67.2069C6.09777 67.1164 6.2974 67.0351 6.52425 66.9808C6.74203 66.9265 6.98702 66.8994 7.23202 66.8994C7.53147 66.8994 7.78554 66.9265 7.99425 66.9898C8.19388 67.0441 8.36628 67.1255 8.49332 67.234C8.62036 67.3425 8.7111 67.4691 8.76554 67.6138C8.81999 67.7585 8.85628 67.9303 8.85628 68.1112V71.5475L8.83814 71.5384Z" fill="#0095DA"/>
<path d="M12.4859 70.9598C12.3589 71.1678 12.2046 71.3305 12.005 71.4571C11.8054 71.5747 11.5513 71.638 11.2609 71.638C11.1067 71.638 10.9706 71.6109 10.8617 71.5656C10.7528 71.5114 10.653 71.4481 10.5804 71.3486C10.5078 71.2582 10.4533 71.1406 10.417 71.014C10.3807 70.8784 10.3626 70.7337 10.3626 70.58V67.3697H9.57315V67.1437C9.82722 67.1437 10.0359 67.0985 10.1993 67.008C10.3626 66.9176 10.4987 66.791 10.6076 66.6373C10.7074 66.4835 10.7982 66.2936 10.8526 66.0947C10.907 65.8867 10.9615 65.6697 11.0069 65.4346H11.27V66.9899H12.2954V67.3697H11.27V70.58C11.27 70.6433 11.2791 70.7156 11.3063 70.7699C11.3335 70.8332 11.3607 70.8784 11.4061 70.9236C11.4515 70.9688 11.5059 71.005 11.5694 71.0231C11.6239 71.0502 11.6965 71.0592 11.76 71.0592C11.8598 71.0592 11.9596 71.0321 12.0413 70.9869C12.123 70.9326 12.1956 70.8784 12.2591 70.797L12.4859 70.9507V70.9598Z" fill="#0095DA"/>
<path d="M17.522 71.6381C17.2226 71.6381 16.9413 71.5748 16.6781 71.4573C16.415 71.3397 16.1881 71.1769 15.9976 70.978C15.798 70.7791 15.6528 70.5349 15.5348 70.2636C15.4259 69.9923 15.3624 69.6939 15.3624 69.3865C15.3624 69.0428 15.4259 68.7173 15.553 68.4189C15.68 68.1114 15.8433 67.8492 16.0611 67.6231C16.2789 67.397 16.5239 67.2252 16.8142 67.0896C17.1046 66.963 17.4131 66.8906 17.7398 66.8906C17.9939 66.8906 18.2298 66.9178 18.4476 66.972C18.6654 67.0263 18.8468 67.1077 19.0011 67.1981C19.1554 67.2976 19.2824 67.4151 19.3641 67.5417C19.4548 67.6774 19.4911 67.813 19.4911 67.9667C19.4911 68.0391 19.473 68.1024 19.4367 68.1566C19.4004 68.2199 19.355 68.2742 19.3005 68.3194C19.2461 68.3646 19.1826 68.4008 19.11 68.4279C19.0374 68.455 18.9648 68.4641 18.8922 68.4641C18.8105 68.4641 18.738 68.446 18.6744 68.4189C18.6109 68.3917 18.5474 68.3556 18.502 68.3013C18.4567 68.2561 18.4204 68.2018 18.3931 68.1476C18.3659 68.0843 18.3568 68.03 18.3568 67.9667C18.3568 67.8673 18.3478 67.7678 18.3205 67.6774C18.3024 67.5869 18.257 67.5055 18.2026 67.4422C18.1481 67.3789 18.0665 67.3247 17.9667 67.2885C17.8668 67.2523 17.7398 67.2343 17.5855 67.2343C17.3768 67.2343 17.1954 67.2795 17.023 67.3609C16.8596 67.4422 16.7235 67.5598 16.6055 67.6954C16.4967 67.8401 16.4059 68.0029 16.3424 68.1928C16.2789 68.3827 16.2517 68.5907 16.2517 68.7987C16.2517 69.088 16.288 69.3684 16.3696 69.6216C16.4422 69.8838 16.5511 70.1099 16.6963 70.3088C16.8324 70.5078 17.0048 70.6615 17.1954 70.77C17.395 70.8876 17.6128 70.9418 17.8487 70.9418C18.0665 70.9418 18.248 70.9057 18.4022 70.8424C18.5565 70.7791 18.6926 70.6886 18.8105 70.5711C18.9285 70.4535 19.0283 70.3269 19.11 70.1732C19.1917 70.0285 19.2642 69.8657 19.3278 69.6939L19.6 69.8024C19.5274 70.0918 19.4185 70.345 19.2915 70.5711C19.1644 70.7971 19.0102 70.987 18.8287 71.1408C18.6472 71.2945 18.4476 71.4121 18.2298 71.4934C18.003 71.5748 17.767 71.62 17.5039 71.62" fill="#0095DA"/>
<path d="M22.9302 68.8888C22.8031 68.9341 22.667 68.9793 22.5218 69.0335C22.3857 69.0878 22.2406 69.142 22.1135 69.2144C21.9774 69.2777 21.8504 69.35 21.7324 69.4314C21.6054 69.5038 21.5055 69.5851 21.4148 69.6756C21.3241 69.766 21.2515 69.8564 21.197 69.9559C21.1426 70.0554 21.1154 70.1548 21.1154 70.2634C21.1154 70.3719 21.1335 70.4804 21.1789 70.5799C21.2243 70.6793 21.2787 70.7698 21.3422 70.8421C21.4148 70.9144 21.4874 70.9777 21.5781 71.0139C21.6689 71.0591 21.7596 71.0863 21.8594 71.0863C21.9593 71.0863 22.0591 71.0682 22.1498 71.0501C22.2405 71.023 22.3313 70.9868 22.422 70.9416C22.5037 70.8964 22.5944 70.8421 22.6852 70.7788C22.7759 70.7155 22.8576 70.6522 22.9483 70.5889V68.8888H22.9302ZM23.8376 71.5384H22.9302V70.9144C22.8213 70.9958 22.7124 71.0772 22.6126 71.1676C22.5128 71.249 22.3948 71.3304 22.2768 71.4028C22.1589 71.4751 22.0228 71.5294 21.8776 71.5746C21.7324 71.6198 21.56 71.6379 21.3694 71.6379C21.188 71.6379 21.0246 71.6108 20.8794 71.5475C20.7343 71.4932 20.6163 71.4118 20.5165 71.3123C20.4167 71.2038 20.335 71.0953 20.2805 70.9506C20.2261 70.815 20.1989 70.6612 20.1989 70.4985C20.1989 70.2995 20.2352 70.1277 20.3168 69.974C20.3985 69.8203 20.4983 69.6756 20.6344 69.549C20.7705 69.4224 20.9248 69.3139 21.1063 69.2144C21.2878 69.1149 21.4783 69.0335 21.678 68.9521C21.8776 68.8798 22.0863 68.8075 22.3041 68.7442C22.5218 68.6809 22.7305 68.6266 22.9302 68.5814V68.3011C22.9302 68.0931 22.912 67.9213 22.8667 67.7766C22.8304 67.6319 22.7668 67.5234 22.6943 67.4329C22.6126 67.3425 22.5218 67.2792 22.413 67.243C22.3041 67.2069 22.177 67.1888 22.0409 67.1888C21.8867 67.1888 21.7596 67.2069 21.6689 67.2521C21.5691 67.2883 21.4965 67.3425 21.442 67.4058C21.3876 67.4691 21.3513 67.5415 21.3331 67.6319C21.315 67.7133 21.3059 67.8037 21.3059 67.8851C21.3059 67.9665 21.3059 68.0388 21.2878 68.1112C21.2787 68.1835 21.2515 68.2468 21.2152 68.3011C21.1789 68.3553 21.1335 68.4005 21.0791 68.4367C21.0246 68.4729 20.943 68.491 20.8522 68.491C20.7796 68.491 20.7161 68.4819 20.6617 68.4548C20.5981 68.4277 20.5528 68.3915 20.5074 68.3372C20.462 68.292 20.4348 68.2378 20.4076 68.1654C20.3804 68.1021 20.3713 68.0298 20.3713 67.9574C20.3713 67.8037 20.4257 67.6681 20.5165 67.5415C20.6163 67.4149 20.7524 67.2973 20.9157 67.2069C21.0881 67.1164 21.2787 67.0351 21.5056 66.9808C21.7324 66.9265 21.9683 66.8994 22.2133 66.8994C22.5128 66.8994 22.7668 66.9265 22.9755 66.9898C23.1843 67.0441 23.3476 67.1255 23.4746 67.234C23.6017 67.3425 23.7015 67.4691 23.7559 67.6138C23.8104 67.7585 23.8376 67.9303 23.8376 68.1112V71.5475V71.5384Z" fill="#0095DA"/>
<path d="M29.5452 71.6381C29.2458 71.6381 28.9645 71.5748 28.7013 71.4573C28.4382 71.3397 28.2113 71.1769 28.0117 70.978C27.8211 70.7791 27.6669 70.5349 27.5489 70.2636C27.44 69.9923 27.3765 69.6939 27.3765 69.3865C27.3765 69.0428 27.44 68.7173 27.5671 68.4189C27.685 68.1114 27.8574 67.8492 28.0752 67.6231C28.293 67.397 28.538 67.2252 28.8283 67.0896C29.1187 66.963 29.4272 66.8906 29.7539 66.8906C30.008 66.8906 30.2439 66.9178 30.4617 66.972C30.6795 67.0263 30.8609 67.1077 31.0152 67.1981C31.1695 67.2976 31.2965 67.4151 31.3782 67.5417C31.4689 67.6774 31.5143 67.813 31.5143 67.9667C31.5143 68.0391 31.4961 68.1024 31.4598 68.1566C31.4235 68.2199 31.3782 68.2742 31.3237 68.3194C31.2693 68.3646 31.2058 68.4008 31.1332 68.4279C31.0606 68.455 30.988 68.4641 30.9154 68.4641C30.8337 68.4641 30.7611 68.446 30.6885 68.4189C30.625 68.3917 30.5706 68.3556 30.5252 68.3013C30.4798 68.2561 30.4435 68.2018 30.4163 68.1476C30.3982 68.0843 30.38 68.03 30.38 67.9667C30.38 67.8673 30.38 67.7678 30.3437 67.6774C30.3256 67.5869 30.2802 67.5055 30.2258 67.4422C30.1713 67.3789 30.0896 67.3247 29.9898 67.2885C29.89 67.2523 29.763 67.2343 29.6087 67.2343C29.4 67.2343 29.2185 67.2795 29.0552 67.3609C28.8919 67.4422 28.7558 67.5598 28.6378 67.6954C28.5289 67.8401 28.4382 68.0029 28.3746 68.1928C28.3111 68.3827 28.2839 68.5907 28.2839 68.7987C28.2839 69.088 28.3202 69.3684 28.4019 69.6216C28.4745 69.8838 28.5833 70.1099 28.7195 70.3088C28.8556 70.5078 29.028 70.6615 29.2185 70.77C29.4182 70.8876 29.6359 70.9418 29.8719 70.9418C30.0806 70.9418 30.2711 70.9057 30.4254 70.8424C30.5796 70.7791 30.7158 70.6886 30.8337 70.5711C30.9517 70.4535 31.0515 70.3269 31.1332 70.1732C31.2148 70.0285 31.2874 69.8657 31.3509 69.6939L31.6232 69.8024C31.5506 70.0918 31.4417 70.345 31.3146 70.5711C31.1876 70.7971 31.0333 70.987 30.8519 71.1408C30.6795 71.2945 30.4798 71.4121 30.253 71.4934C30.0352 71.5748 29.7902 71.62 29.5271 71.62" fill="#0095DA"/>
<path d="M33.3926 67.8217C33.6648 67.5143 33.9552 67.2792 34.2546 67.1254C34.5541 66.9717 34.8535 66.8994 35.162 66.8994C35.3254 66.8994 35.4706 66.9355 35.6157 67.0079C35.7609 67.0802 35.8789 67.1797 35.9787 67.3063C36.0785 67.4329 36.1602 67.5776 36.2237 67.7494C36.2872 67.9212 36.3144 68.093 36.3144 68.2829V71.5564H35.407V68.4457C35.407 68.1473 35.3344 67.9212 35.2074 67.7675C35.0713 67.6137 34.8989 67.5324 34.6811 67.5324C34.5813 67.5324 34.4815 67.5504 34.3726 67.5776C34.2637 67.6137 34.1548 67.6499 34.0459 67.7132C33.937 67.7675 33.8282 67.8398 33.7193 67.9212C33.6104 68.0026 33.5015 68.093 33.4017 68.1925V71.5655H32.4943V64.937L33.1385 64.6748H33.4017V67.8398L33.3926 67.8217Z" fill="#0095DA"/>
<path d="M39.7717 71.3033C39.9531 71.3033 40.1165 71.2581 40.2617 71.1676C40.4068 71.0772 40.5339 70.9506 40.6428 70.7969C40.7517 70.6432 40.8424 70.4623 40.8968 70.2543C40.9604 70.0463 40.9876 69.8293 40.9876 69.6032C40.9876 69.2777 40.9604 68.9612 40.8968 68.6809C40.8424 68.3915 40.7517 68.1473 40.6246 67.9303C40.4976 67.7133 40.3343 67.5505 40.1255 67.4239C39.9259 67.2973 39.6718 67.243 39.3724 67.243C39.2181 67.243 39.073 67.2883 38.9278 67.3696C38.7917 67.4601 38.6646 67.5776 38.5467 67.7314C38.4378 67.8851 38.347 68.0569 38.2835 68.2649C38.22 68.4729 38.1837 68.6809 38.1837 68.916C38.1837 69.2415 38.22 69.558 38.2926 69.8474C38.3652 70.1368 38.465 70.39 38.6011 70.607C38.7372 70.824 38.9005 70.9958 39.0911 71.1224C39.2907 71.249 39.5085 71.3123 39.7535 71.3123M39.5993 71.6379C39.2544 71.6379 38.9278 71.5746 38.6283 71.457C38.3289 71.3304 38.0748 71.1677 37.8661 70.9597C37.6483 70.7517 37.485 70.5075 37.367 70.2272C37.2491 69.9469 37.1855 69.6484 37.1855 69.3229C37.1855 68.9974 37.2491 68.6718 37.367 68.3734C37.485 68.075 37.6574 67.8218 37.8661 67.6048C38.0839 67.3877 38.338 67.2159 38.6283 67.0893C38.9278 66.9627 39.2454 66.8994 39.5993 66.8994C39.9531 66.8994 40.2707 66.9537 40.5611 67.0712C40.8515 67.1797 41.1055 67.3425 41.3233 67.5505C41.5411 67.7494 41.7135 67.9936 41.8315 68.2649C41.9494 68.5362 42.013 68.8255 42.013 69.142C42.013 69.4857 41.9585 69.8112 41.8315 70.1096C41.7135 70.4171 41.5411 70.6793 41.3233 70.9054C41.1055 71.1315 40.8515 71.3123 40.5611 71.448C40.2707 71.5836 39.9441 71.6469 39.5993 71.6469" fill="#0095DA"/>
<path d="M46.8948 71.3214C47.0218 71.3214 47.1398 71.3033 47.2396 71.2671C47.3394 71.2309 47.4302 71.1767 47.5118 71.1134C47.5844 71.0501 47.648 70.9778 47.6843 70.8964C47.7296 70.815 47.7478 70.7246 47.7478 70.6432C47.7478 70.5075 47.7115 70.3809 47.6389 70.2814C47.5663 70.182 47.4756 70.0825 47.3667 70.0011C47.2487 69.9197 47.1217 69.8383 46.9765 69.775C46.8313 69.7117 46.677 69.6394 46.5318 69.5671C46.3776 69.4947 46.2324 69.4133 46.0872 69.3319C45.942 69.2506 45.8059 69.1511 45.688 69.0426C45.5791 68.9341 45.4793 68.8075 45.4157 68.6718C45.3431 68.5271 45.3068 68.3553 45.3068 68.1654C45.3068 67.9846 45.3431 67.8127 45.4248 67.659C45.5065 67.5053 45.6063 67.3696 45.7515 67.2521C45.8876 67.1436 46.0509 67.0531 46.2415 66.9898C46.432 66.9265 46.6407 66.8994 46.8676 66.8994C47.0128 66.8994 47.158 66.9085 47.2941 66.9265C47.4302 66.9446 47.5572 66.9898 47.6843 67.0531C47.8113 67.1164 47.9383 67.1978 48.0654 67.3063C48.1924 67.4149 48.3194 67.5595 48.4556 67.7404L48.1198 68.0388C47.9474 67.7585 47.7568 67.5505 47.5391 67.4058C47.3213 67.2702 47.0944 67.1978 46.8494 67.1978C46.7224 67.1978 46.6044 67.2159 46.4956 67.2521C46.3867 67.2792 46.2959 67.3244 46.2233 67.3787C46.1417 67.4329 46.0872 67.4962 46.0418 67.5686C45.9965 67.6409 45.9783 67.7223 45.9783 67.8037C45.9783 67.9393 46.0146 68.0569 46.0963 68.1564C46.1689 68.2558 46.2687 68.3553 46.3957 68.4367C46.5228 68.5181 46.6589 68.5904 46.8222 68.6628C46.9765 68.7261 47.1398 68.7984 47.3122 68.8708C47.4755 68.9431 47.6389 69.0245 47.8022 69.1059C47.9656 69.1873 48.1017 69.2867 48.2287 69.3952C48.3557 69.5038 48.4555 69.6304 48.5281 69.775C48.6007 69.9197 48.637 70.0825 48.637 70.2724C48.637 70.4623 48.6007 70.6432 48.5281 70.815C48.4555 70.9868 48.3467 71.1224 48.2015 71.249C48.0563 71.3666 47.8748 71.4661 47.657 71.5384C47.4393 71.6108 47.1852 71.6469 46.8857 71.6469C46.7496 71.6469 46.6135 71.6469 46.4774 71.6108C46.3413 71.5927 46.1961 71.5475 46.0509 71.4842C45.9057 71.4209 45.7605 71.3395 45.6244 71.2309C45.4793 71.1224 45.3431 70.9777 45.207 70.7969L45.5791 70.4623C45.688 70.616 45.7968 70.7517 45.8967 70.8602C45.9965 70.9687 46.1054 71.0591 46.2052 71.1224C46.3141 71.1857 46.4139 71.24 46.5228 71.2762C46.6317 71.3123 46.7587 71.3214 46.8857 71.3214" fill="#0095DA"/>
<path d="M50.47 66.9898V70.2271C50.47 70.3356 50.4972 70.4441 50.5426 70.5436C50.597 70.6431 50.6696 70.7335 50.7604 70.8059C50.8511 70.8782 50.96 70.9415 51.078 70.9777C51.1959 71.0229 51.332 71.041 51.4681 71.041C51.5589 71.041 51.6587 71.0229 51.7585 70.9867C51.8583 70.9505 51.9581 70.8963 52.058 70.8239C52.1578 70.7606 52.2485 70.6793 52.3393 70.5888C52.4209 70.4984 52.4935 70.408 52.557 70.2995V66.9717H53.4644V71.5293H52.557V70.6793C52.4754 70.8059 52.3756 70.9325 52.2576 71.05C52.1396 71.1676 52.0035 71.2671 51.8674 71.3484C51.7313 71.4389 51.5861 71.5022 51.4319 71.5564C51.2776 71.6016 51.1415 71.6288 51.0054 71.6288C50.8057 71.6288 50.6243 71.5926 50.4428 71.5202C50.2704 71.4479 50.1161 71.3394 49.98 71.2218C49.853 71.0952 49.7441 70.9415 49.6715 70.7697C49.5989 70.5979 49.5626 70.417 49.5626 70.2181V66.9807H50.47V66.9898Z" fill="#0095DA"/>
<path d="M56.4589 71.6381C56.1594 71.6381 55.8781 71.5748 55.615 71.4573C55.3518 71.3397 55.125 71.1769 54.9254 70.978C54.7348 70.7791 54.5805 70.5349 54.4717 70.2636C54.3628 69.9923 54.3083 69.6939 54.3083 69.3865C54.3083 69.0428 54.3718 68.7173 54.4898 68.4189C54.6078 68.1114 54.7802 67.8492 54.998 67.6231C55.2157 67.397 55.4607 67.2252 55.7511 67.0896C56.0415 66.963 56.35 66.8906 56.6767 66.8906C56.9307 66.8906 57.1667 66.9178 57.3844 66.972C57.6022 67.0263 57.7837 67.1077 57.947 67.1981C58.1013 67.2976 58.2283 67.4151 58.31 67.5417C58.4007 67.6774 58.4461 67.813 58.4461 67.9667C58.4461 68.0391 58.4279 68.1024 58.3917 68.1566C58.3554 68.2199 58.31 68.2742 58.2465 68.3194C58.192 68.3646 58.1285 68.4008 58.0559 68.4279C57.9833 68.455 57.9107 68.4641 57.8381 68.4641C57.7565 68.4641 57.6839 68.446 57.6204 68.4189C57.5568 68.3917 57.5024 68.3556 57.457 68.3013C57.4117 68.2561 57.3754 68.2018 57.3481 68.1476C57.33 68.0843 57.3118 68.03 57.3118 67.9667C57.3118 67.8673 57.3028 67.7678 57.2755 67.6774C57.2574 67.5869 57.212 67.5055 57.1576 67.4422C57.0941 67.3789 57.0215 67.3247 56.9217 67.2885C56.8218 67.2523 56.6948 67.2343 56.5405 67.2343C56.3318 67.2343 56.1504 67.2795 55.9779 67.3609C55.8146 67.4422 55.6785 67.5598 55.5605 67.6954C55.4517 67.8401 55.3609 68.0029 55.2974 68.1928C55.2339 68.3827 55.2067 68.5907 55.2067 68.7987C55.2067 69.088 55.243 69.3684 55.3246 69.6216C55.4063 69.8838 55.5061 70.1099 55.6513 70.3088C55.7874 70.5078 55.9507 70.6615 56.1504 70.77C56.35 70.8876 56.5678 70.9418 56.8037 70.9418C57.0215 70.9418 57.2029 70.9057 57.3572 70.8424C57.5115 70.7791 57.6476 70.6886 57.7655 70.5711C57.8744 70.4535 57.9742 70.3269 58.065 70.1732C58.1467 70.0285 58.2192 69.8657 58.2828 69.6939L58.555 69.8024C58.4824 70.0918 58.3735 70.345 58.2374 70.5711C58.1104 70.7971 57.9561 70.987 57.7746 71.1408C57.5931 71.2945 57.4026 71.4121 57.1757 71.4934C56.9579 71.5748 56.7129 71.62 56.4498 71.62" fill="#0095DA"/>
<path d="M62.8652 68.816L65.1609 66.9803H65.7507L63.7091 68.6351L66.2407 71.5379H65.043L62.8652 69.042V71.5379H61.9669V64.9094L62.6111 64.6562H62.8652V68.816Z" fill="#0095DA"/>
<path d="M67.3569 67.8217C67.6291 67.5143 67.9195 67.2792 68.2189 67.1254C68.5183 66.9717 68.8269 66.8994 69.1263 66.8994C69.2806 66.8994 69.4348 66.9355 69.5709 67.0079C69.7161 67.0802 69.8341 67.1797 69.9339 67.3063C70.0428 67.4329 70.1245 67.5776 70.1789 67.7494C70.2424 67.9212 70.2696 68.093 70.2696 68.2829V71.5564H69.3622V68.4457C69.3622 68.1473 69.2896 67.9212 69.1626 67.7675C69.0265 67.6137 68.845 67.5324 68.6363 67.5324C68.5365 67.5324 68.4367 67.5504 68.3278 67.5776C68.2189 67.6137 68.11 67.6499 68.0011 67.7132C67.8922 67.7675 67.7834 67.8398 67.6745 67.9212C67.5656 68.0026 67.4567 68.093 67.3569 68.1925V71.5655H66.4495V64.937L67.0937 64.6748H67.3569V67.8398V67.8217Z" fill="#0095DA"/>
<path d="M73.736 71.3033C73.9084 71.3033 74.0808 71.2581 74.226 71.1676C74.3802 71.0772 74.4982 70.9506 74.6161 70.7969C74.725 70.6432 74.8067 70.4623 74.8702 70.2543C74.9337 70.0463 74.9609 69.8293 74.9609 69.6032C74.9609 69.2777 74.9337 68.9612 74.8702 68.6809C74.8158 68.3915 74.725 68.1473 74.598 67.9303C74.4709 67.7133 74.3076 67.5505 74.0989 67.4239C73.8993 67.2973 73.6452 67.243 73.3458 67.243C73.1915 67.243 73.0463 67.2883 72.9011 67.3696C72.7559 67.4601 72.6289 67.5776 72.52 67.7314C72.4111 67.8851 72.3204 68.0569 72.2569 68.2649C72.1934 68.4729 72.1571 68.6809 72.1571 68.916C72.1571 69.2415 72.1934 69.558 72.2659 69.8474C72.3385 70.1368 72.4384 70.39 72.5745 70.607C72.7106 70.824 72.8739 70.9958 73.0645 71.1224C73.2641 71.249 73.4819 71.3123 73.7269 71.3123M73.5635 71.6379C73.2187 71.6379 72.8921 71.5746 72.5926 71.457C72.2932 71.3304 72.0391 71.1677 71.8304 70.9597C71.6217 70.7517 71.4493 70.5075 71.3313 70.2272C71.2134 69.9469 71.1498 69.6484 71.1498 69.3229C71.1498 68.9974 71.2134 68.6718 71.3313 68.3734C71.4493 68.075 71.6217 67.8218 71.8304 67.6048C72.0482 67.3877 72.3022 67.2159 72.5926 67.0893C72.8921 66.9627 73.2097 66.8994 73.5635 66.8994C73.9174 66.8994 74.235 66.9537 74.5254 67.0712C74.8158 67.1797 75.0789 67.3425 75.2876 67.5505C75.5054 67.7494 75.6687 67.9936 75.7867 68.2649C75.9046 68.5362 75.9682 68.8255 75.9682 69.142C75.9682 69.4857 75.9046 69.8112 75.7867 70.1096C75.6687 70.4171 75.4963 70.6793 75.2876 70.9054C75.0698 71.1315 74.8158 71.3123 74.5254 71.448C74.235 71.5836 73.9084 71.6469 73.5635 71.6469" fill="#0095DA"/>
<path d="M79.7793 68.4457C79.7793 68.2739 79.752 68.1112 79.6885 67.9665C79.625 67.8218 79.5433 67.6861 79.4435 67.5776C79.3346 67.4691 79.2076 67.3877 79.0715 67.3244C78.9263 67.2611 78.772 67.234 78.6087 67.234C78.4726 67.234 78.3456 67.2611 78.2185 67.3244C78.0915 67.3877 77.9826 67.4691 77.8828 67.5776C77.783 67.6861 77.7013 67.8127 77.6378 67.9574C77.5743 68.1021 77.5289 68.2649 77.5198 68.4367H79.7883L79.7793 68.4457ZM78.8719 71.6379C78.5633 71.6379 78.273 71.5836 78.0007 71.4661C77.7285 71.3485 77.4926 71.1948 77.2839 70.9958C77.0843 70.7969 76.9209 70.5618 76.803 70.2995C76.685 70.0282 76.6306 69.7389 76.6306 69.4405C76.6306 69.0787 76.685 68.7351 76.7939 68.4277C76.9028 68.1202 77.057 67.8489 77.2476 67.6228C77.4381 67.3968 77.6832 67.225 77.9554 67.0893C78.2367 66.9627 78.5361 66.8994 78.8719 66.8994C79.1713 66.8994 79.4526 66.9537 79.6976 67.0531C79.9517 67.1526 80.1604 67.2973 80.3419 67.4782C80.5233 67.65 80.6594 67.858 80.7593 68.0931C80.8591 68.3282 80.9135 68.5633 80.9135 68.8255H77.5017C77.5017 69.133 77.538 69.4133 77.6196 69.6756C77.7013 69.9378 77.8102 70.1639 77.9554 70.3538C78.1006 70.5437 78.2639 70.6884 78.4635 70.7969C78.6632 70.9054 78.8809 70.9597 79.1169 70.9597C79.3165 70.9597 79.507 70.9325 79.6885 70.8602C79.87 70.7969 80.0333 70.7155 80.1785 70.607C80.3237 70.5075 80.4507 70.3809 80.5596 70.2543C80.6594 70.1187 80.732 69.983 80.7774 69.8383L81.0406 69.9559C80.977 70.191 80.8681 70.408 80.723 70.616C80.5778 70.824 80.4054 70.9958 80.2148 71.1496C80.0243 71.3033 79.8065 71.4209 79.5796 71.5113C79.3437 71.6017 79.1169 71.6469 78.8809 71.6469" fill="#0095DA"/>
<path d="M85.3507 70.7964C85.4052 70.8506 85.4687 70.9049 85.5322 70.9591C85.5957 71.0134 85.6774 71.0676 85.759 71.1129C85.8407 71.1581 85.9314 71.1943 86.0403 71.2214C86.1402 71.2485 86.2581 71.2666 86.3851 71.2666C86.5939 71.2666 86.7844 71.2123 86.9659 71.1129C87.1383 71.0134 87.2835 70.8687 87.4105 70.6878C87.5285 70.507 87.6283 70.29 87.7009 70.0368C87.7644 69.7836 87.8007 69.5123 87.8007 69.2139C87.8007 68.9878 87.7644 68.7708 87.7009 68.5809C87.6283 68.3819 87.5376 68.2101 87.4196 68.0654C87.3016 67.9207 87.1565 67.8032 86.9931 67.7218C86.8298 67.6404 86.6574 67.5952 86.4668 67.5952C86.367 67.5952 86.2581 67.6133 86.1492 67.6404C86.0403 67.6675 85.9314 67.7127 85.8407 67.758C85.7409 67.8032 85.6502 67.8665 85.5685 67.9298C85.4868 67.9931 85.4142 68.0654 85.3689 68.1468V70.7964H85.3507ZM84.4433 64.9094L85.0876 64.6562H85.3507V67.8393C85.4233 67.7127 85.5231 67.5952 85.6411 67.4776C85.759 67.3601 85.8861 67.2606 86.0313 67.1702C86.1764 67.0888 86.3216 67.0164 86.4759 66.9712C86.6302 66.917 86.7753 66.8898 86.9205 66.8898C87.1837 66.8898 87.4287 66.9441 87.6555 67.0526C87.8733 67.1611 88.0729 67.3058 88.2363 67.4867C88.3905 67.6675 88.5266 67.8846 88.6174 68.1287C88.7081 68.3729 88.7535 68.6351 88.7535 68.9154C88.7535 69.1686 88.7263 69.4038 88.6627 69.6389C88.5992 69.874 88.5176 70.082 88.4087 70.29C88.2998 70.4889 88.1637 70.6698 88.0094 70.8416C87.8552 71.0043 87.6827 71.149 87.4922 71.2666C87.3016 71.3841 87.102 71.4746 86.8842 71.5379C86.6664 71.6012 86.4396 71.6374 86.2037 71.6374C85.8679 71.6374 85.5413 71.5921 85.2418 71.5108C84.9424 71.4203 84.6792 71.2847 84.4433 71.0948V64.9094Z" fill="#0095DA"/>
<path d="M92.0474 68.8888C91.9204 68.9341 91.7843 68.9793 91.6391 69.0335C91.4939 69.0878 91.3578 69.142 91.2217 69.2144C91.0856 69.2777 90.9585 69.35 90.8406 69.4314C90.7226 69.5038 90.6137 69.5851 90.523 69.6756C90.4232 69.766 90.3506 69.8564 90.3052 69.9559C90.2507 70.0554 90.2235 70.1548 90.2235 70.2634C90.2235 70.3719 90.2417 70.4804 90.287 70.5799C90.3233 70.6793 90.3778 70.7698 90.4504 70.8421C90.5139 70.9144 90.5956 70.9777 90.6863 71.0139C90.777 71.0591 90.8678 71.0863 90.9676 71.0863C91.0765 71.0863 91.1672 71.0682 91.258 71.0501C91.3487 71.023 91.4395 70.9868 91.5302 70.9416C91.6209 70.8964 91.7026 70.8421 91.7933 70.7788C91.875 70.7155 91.9657 70.6522 92.0565 70.5889V68.8888H92.0474ZM92.9548 71.5384H92.0383V70.9144C91.9295 70.9958 91.8296 71.0772 91.7207 71.1676C91.6209 71.249 91.503 71.3304 91.385 71.4028C91.267 71.4751 91.1309 71.5294 90.9857 71.5746C90.8406 71.6198 90.6682 71.6379 90.4776 71.6379C90.2961 71.6379 90.1419 71.6108 89.9876 71.5475C89.8424 71.4932 89.7245 71.4118 89.6156 71.3123C89.5158 71.2038 89.4341 71.0953 89.3796 70.9506C89.3252 70.815 89.298 70.6612 89.298 70.4985C89.298 70.2995 89.3343 70.1277 89.4159 69.974C89.4976 69.8203 89.5974 69.6756 89.7335 69.549C89.8696 69.4224 90.0239 69.3139 90.2054 69.2144C90.3869 69.1149 90.5774 69.0335 90.777 68.9521C90.9767 68.8798 91.1854 68.8075 91.4032 68.7442C91.6119 68.6809 91.8296 68.6266 92.0293 68.5814V68.3011C92.0293 68.0931 92.0111 67.9213 91.9748 67.7766C91.9295 67.6319 91.875 67.5234 91.7933 67.4329C91.7117 67.3425 91.63 67.2792 91.5211 67.243C91.4122 67.2069 91.2852 67.1888 91.1491 67.1888C90.9948 67.1888 90.8678 67.2069 90.777 67.2521C90.6863 67.2883 90.6046 67.3425 90.5502 67.4058C90.4957 67.4691 90.4595 67.5415 90.4413 67.6319C90.4232 67.7133 90.4141 67.8037 90.4141 67.8851C90.4141 67.9665 90.4141 68.0388 90.3959 68.1112C90.3869 68.1835 90.3596 68.2468 90.3233 68.3011C90.287 68.3553 90.2417 68.4005 90.1872 68.4367C90.1328 68.4729 90.0602 68.491 89.9695 68.491C89.8969 68.491 89.8333 68.4819 89.7789 68.4548C89.7245 68.4277 89.67 68.3915 89.6246 68.3372C89.5793 68.292 89.552 68.2378 89.5248 68.1654C89.4976 68.1021 89.4885 68.0298 89.4885 67.9574C89.4885 67.8037 89.5339 67.6681 89.6337 67.5415C89.7335 67.4149 89.8696 67.2973 90.033 67.2069C90.2054 67.1164 90.3959 67.0351 90.6228 66.9808C90.8496 66.9265 91.0856 66.8994 91.3306 66.8994C91.63 66.8994 91.8841 66.9265 92.0928 66.9898C92.3015 67.0441 92.4648 67.1255 92.5919 67.234C92.7189 67.3425 92.8096 67.4691 92.8641 67.6138C92.9185 67.7585 92.9457 67.9303 92.9457 68.1112V71.5475L92.9548 71.5384Z" fill="#0095DA"/>
<path d="M94.1707 66.9901H95.0781V67.822C95.3503 67.5146 95.6407 67.2795 95.9402 67.1257C96.2396 66.972 96.5481 66.8906 96.8566 66.8906C97.0109 66.8906 97.1652 66.9268 97.3013 66.9991C97.4465 67.0715 97.5644 67.171 97.6733 67.2976C97.7731 67.4242 97.8548 67.5688 97.9183 67.7407C97.9818 67.9125 98.0091 68.0843 98.0091 68.2742V71.5387H97.1016V68.4189C97.1016 68.1205 97.0291 67.8944 96.902 67.7407C96.7659 67.5869 96.5844 67.5055 96.3757 67.5055C96.2759 67.5055 96.1761 67.5236 96.0672 67.5508C95.9583 67.5869 95.8494 67.6231 95.7405 67.6864C95.6316 67.7407 95.5228 67.813 95.4048 67.8944C95.2959 67.9758 95.187 68.0662 95.0872 68.1657V71.5387H94.1798V66.9811L94.1707 66.9901Z" fill="#0095DA"/>
<path d="M54.0815 66.0942C53.5733 65.8953 53.4463 66.4288 53.4463 66.4288C53.5915 66.5283 53.7094 66.5826 53.7004 66.7905C53.6913 67.0166 53.3918 67.2065 53.283 67.2879V67.731C53.283 67.731 54.2176 67.3874 54.3718 66.8448C54.4807 66.474 54.272 66.1575 54.0906 66.0942" fill="#0095DA"/>
<path d="M38.0385 32.048V33.2055H37.6393V30.791H38.0385V31.8942H39.2181V30.791H39.6083V33.2055H39.2181V32.048H38.0385Z" fill="#0095DA"/>
<path d="M41.8224 30.791V30.9538H40.5883V31.8129H41.4141V31.9666H40.5883V33.0517H41.8224V33.2055H40.1982V30.791H41.8224Z" fill="#0095DA"/>
<path d="M42.6118 32.2465H43.4739L43.0474 31.2879L42.6118 32.2465ZM43.2017 30.7363L44.3087 33.205H43.9094L43.5555 32.4002H42.5483L42.1763 33.205H41.9767L43.1018 30.7363H43.2017Z" fill="#0095DA"/>
<path d="M44.6082 30.791H44.9983V33.0517H46.178V33.2055H44.6082V30.791Z" fill="#0095DA"/>
<path d="M48.3739 30.791V30.9538H47.5209V33.2055H47.1307V30.9538H46.2778V30.791H48.3739Z" fill="#0095DA"/>
<path d="M49.1268 32.048V33.2055H48.7275V30.791H49.1268V31.8942H50.3064V30.791H50.6966V33.2055H50.3064V32.048H49.1268Z" fill="#0095DA"/>
<path d="M51.6406 32.0118C51.6406 32.1837 51.6678 32.3374 51.7132 32.473C51.7585 32.6087 51.8311 32.7262 51.9219 32.8167C52.0035 32.9071 52.1124 32.9794 52.2304 33.0337C52.3484 33.0789 52.4754 33.106 52.6115 33.106C52.6932 33.106 52.7748 33.0879 52.8474 33.0518C52.92 33.0156 52.9926 32.9794 53.0652 32.9252C53.1287 32.8709 53.1922 32.8167 53.2376 32.7443C53.2921 32.681 53.3284 32.6087 53.3646 32.5454L53.528 32.6539C53.4826 32.7353 53.4282 32.8167 53.3556 32.889C53.2921 32.9613 53.2104 33.0337 53.1287 33.0879C53.038 33.1422 52.9472 33.1874 52.8383 33.2236C52.7295 33.2598 52.6115 33.2778 52.4754 33.2778C52.3484 33.2778 52.2213 33.2598 52.1124 33.2326C51.9945 33.2055 51.8946 33.1603 51.7948 33.106C51.695 33.0518 51.6134 32.9885 51.5317 32.9071C51.4591 32.8257 51.3956 32.7443 51.3411 32.6539C51.2867 32.5635 51.2504 32.464 51.2232 32.3555C51.1959 32.247 51.1778 32.1384 51.1778 32.0209C51.1778 31.9033 51.1959 31.7948 51.2232 31.6863C51.2504 31.5778 51.2958 31.4783 51.3411 31.3879C51.3956 31.2975 51.4591 31.207 51.5408 31.1256C51.6224 31.0443 51.7041 30.981 51.8039 30.9267C51.9037 30.8724 52.0035 30.8272 52.1215 30.8001C52.2395 30.7639 52.3574 30.7549 52.4935 30.7549C52.6206 30.7549 52.7295 30.773 52.8383 30.8091C52.9472 30.8453 53.038 30.8905 53.1287 30.9448C53.2195 30.999 53.2921 31.0714 53.3646 31.1437C53.4282 31.2161 53.4917 31.2975 53.5371 31.3788L53.3646 31.4964C53.2648 31.2975 53.1559 31.1528 53.038 31.0623C52.92 30.9719 52.7748 30.9267 52.6206 30.9267C52.4845 30.9267 52.3574 30.9538 52.2395 30.999C52.1215 31.0533 52.0217 31.1256 51.9309 31.2161C51.8402 31.3065 51.7767 31.4241 51.7222 31.5597C51.6678 31.6953 51.6496 31.8491 51.6496 32.0209" fill="#0095DA"/>
<path d="M54.3718 32.2465H55.2339L54.8074 31.2879L54.3718 32.2465ZM54.9617 30.7363L56.0687 33.205H55.6694L55.3156 32.4002H54.3083L53.9363 33.205H53.7367L54.8709 30.7363H54.9707H54.9617Z" fill="#0095DA"/>
<path d="M56.7583 31.9485H56.9852C57.0759 31.9485 57.1576 31.9395 57.2302 31.9123C57.3028 31.8852 57.3663 31.849 57.4208 31.8129C57.4752 31.7676 57.5206 31.7134 57.5478 31.6501C57.575 31.5868 57.5932 31.5144 57.5932 31.4331C57.5932 31.3607 57.5841 31.2974 57.5569 31.2341C57.5296 31.1708 57.5024 31.1256 57.4571 31.0804C57.4117 31.0352 57.3663 31.008 57.3028 30.9809C57.2393 30.9538 57.1758 30.9447 57.1032 30.9447H56.7583V31.9485ZM56.3682 30.791H57.1758C57.3209 30.791 57.4389 30.8091 57.5478 30.8362C57.6567 30.8634 57.7383 30.9086 57.8109 30.9719C57.8835 31.0261 57.938 31.0894 57.9743 31.1708C58.0106 31.2522 58.0287 31.3336 58.0287 31.424C58.0287 31.4964 58.0106 31.5687 57.9834 31.632C57.9561 31.6953 57.9198 31.7586 57.8654 31.8129C57.8109 31.8671 57.7565 31.9123 57.6839 31.9485C57.6113 31.9847 57.5387 32.0208 57.448 32.0389L58.3009 33.2145H57.8472L57.0306 32.0751H56.7583V33.2145H56.3682V30.8001V30.791Z" fill="#0095DA"/>
<path d="M60.2246 30.791V30.9538H58.9906V31.8129H59.8163V31.9666H58.9906V33.0517H60.2246V33.2055H58.6004V30.791H60.2246Z" fill="#0095DA"/>
<path d="M37.9024 20.084V20.5633L35.1983 20.5542V27.4991H33.9461V20.5542H31.2511V20.084H37.9024Z" fill="#ED1C24"/>
<path d="M39.0457 20.0752H40.3252L43.2289 25.7722L43.2833 25.7813L46.1326 20.0752H47.3848L47.3939 27.4994H46.1326V21.4226H46.0872L43.0383 27.5084L42.7752 27.4994L39.6809 21.4678L39.5993 21.4588V27.4994H39.0457V20.0752Z" fill="#ED1C24"/>
<path d="M49.2632 20.0752H50.5426L53.4372 25.7722H53.4917L56.35 20.0842L57.6022 20.0752V27.4994H56.35L56.3409 21.4226H56.2956L53.2467 27.4994H52.9926L49.8983 21.4588H49.8167V27.4994H49.2632V20.0752Z" fill="#ED1C24"/>
<path d="M60.6148 23.8104C60.6148 24.3348 60.6874 24.8051 60.8417 25.212C61.005 25.628 61.2228 25.9716 61.495 26.261C61.7672 26.5413 62.0939 26.7583 62.475 26.9121C62.847 27.0658 63.2554 27.1381 63.7 27.1381C63.9632 27.1381 64.2082 27.0929 64.4532 26.9934C64.6982 26.894 64.9159 26.7583 65.1337 26.5956C65.3424 26.4328 65.5239 26.2519 65.6963 26.0439C65.8596 25.836 65.9957 25.628 66.1046 25.42L66.6309 25.7546C66.4767 25.9987 66.2952 26.2429 66.0865 26.469C65.8778 26.7041 65.6328 26.903 65.3606 27.0748C65.0883 27.2466 64.7798 27.4004 64.4259 27.4998C64.0811 27.6084 63.6909 27.6626 63.2645 27.6536C62.8561 27.6536 62.4659 27.6084 62.103 27.5179C61.74 27.4185 61.4043 27.2919 61.0958 27.12C60.7872 26.9573 60.5241 26.7493 60.2791 26.5142C60.0432 26.2791 59.8345 26.0168 59.6711 25.7274C59.5078 25.4381 59.3807 25.1397 59.29 24.8141C59.1993 24.4886 59.1539 24.1449 59.1539 23.8013C59.1539 23.4486 59.1993 23.1141 59.29 22.7885C59.3807 22.4539 59.5078 22.1465 59.6802 21.8571C59.8526 21.5677 60.0613 21.3055 60.3063 21.0613C60.5513 20.8262 60.8235 20.6182 61.132 20.4374C61.4406 20.2655 61.7763 20.1389 62.1483 20.0304C62.5204 19.94 62.9106 19.8857 63.3189 19.8857C63.7182 19.8857 64.0811 19.94 64.4169 20.0485C64.7526 20.157 65.052 20.3017 65.3333 20.4735C65.6146 20.6453 65.8596 20.8533 66.0683 21.0794C66.2861 21.3145 66.4676 21.5496 66.6219 21.8028L66.0774 22.1645C65.7689 21.5677 65.415 21.1246 65.0339 20.8443C64.6437 20.564 64.2082 20.4283 63.7 20.4283C63.2735 20.4283 62.8652 20.5097 62.4932 20.6634C62.112 20.8262 61.7854 21.0432 61.5132 21.3326C61.2409 21.631 61.0141 21.9746 60.8598 22.3997C60.6965 22.8156 60.6148 23.2859 60.6148 23.8013" fill="#ED1C24"/>
<path d="M42.0856 4.53093C36.1057 -1.42833 26.4963 -1.50972 20.6163 4.35007C14.7363 10.2099 14.827 19.7863 20.8069 25.7455L27.7122 32.6272L31.2602 29.0914L24.3548 22.2098C20.943 18.8096 20.4167 13.6461 22.7941 9.7758C22.6943 10.8067 23.0482 11.8737 23.8467 12.6695C25.2622 14.0893 27.558 14.0893 28.9826 12.6695C30.3982 11.2588 30.3982 8.96194 28.9826 7.55125C28.1841 6.75548 27.1133 6.41185 26.0789 6.51132C29.9626 4.14208 35.1439 4.67561 38.5648 8.06669L45.4702 14.9574L49.0182 11.4126L42.1128 4.53093H42.0856Z" fill="#00C0F3"/>
<path d="M77.3746 4.3403C71.4946 -1.51948 61.8852 -1.4381 55.9054 4.52116L49 11.4028L52.557 14.9386L59.4624 8.05693C62.8743 4.6568 68.0556 4.13232 71.9393 6.50155C70.8957 6.40208 69.825 6.75475 69.0356 7.55053C67.6109 8.96121 67.6109 11.2491 69.0356 12.6688C70.4511 14.0795 72.7559 14.0795 74.1715 12.6688C74.97 11.873 75.3148 10.806 75.2241 9.77507C77.6015 13.6454 77.0661 18.8089 73.6543 22.209L66.7489 29.0907L70.2969 32.6264L77.2022 25.7448C83.182 19.7855 83.2637 10.2091 77.3837 4.34935" fill="#0053A4"/>
<path d="M66.7307 29.082L52.4935 43.2703C52.5298 43.0352 52.548 42.8091 52.548 42.6011C52.548 40.6027 50.9237 38.984 48.9183 38.984C46.913 38.984 45.2887 40.6027 45.2887 42.6011C45.2887 42.7549 45.3068 42.9267 45.325 43.0985L31.2602 29.082L27.7122 32.6178L47.2215 52.06C47.7115 52.5573 48.3557 52.7925 49 52.7925C49.6443 52.7925 50.2885 52.5483 50.7785 52.06L70.2878 32.6178L66.7398 29.082H66.7307Z" fill="#0095DA"/>
<path d="M2.92186 87.0556V79.6676H0.154266V78.6729H6.81464V79.6676H4.03797V87.0556H2.92186Z" fill="#0095DA"/>
<path d="M9.45519 83.6101H12.3044L11.4243 81.2861C11.1611 80.5807 10.9615 80.002 10.8254 79.5498C10.7165 80.0834 10.5713 80.6169 10.3717 81.1504L9.44611 83.6101H9.45519ZM10.8526 77.1896L10.2083 78.1572H9.02871L10.2719 76.5566H11.3698L12.6583 78.1572H11.4878L10.8617 77.1896H10.8526ZM7.03241 87.0554L10.2628 78.6817H11.4606L14.8996 87.0554H13.6293L12.6493 84.5144H9.13759L8.21204 87.0554H7.03241Z" fill="#0095DA"/>
<path d="M15.7526 87.0553V78.6816H17.4222L19.4095 84.6138C19.5909 85.1654 19.727 85.5814 19.8087 85.8526C19.9085 85.5452 20.0537 85.1021 20.2533 84.5143L22.2678 78.6907H23.765V87.0644H22.6943V80.0562L20.2533 87.0644H19.2461L16.8143 79.9296V87.0644H15.7435L15.7526 87.0553Z" fill="#0095DA"/>
<path d="M30.752 87.0556V79.6676H27.9844V78.6729H34.6448V79.6676H31.8681V87.0556H30.752Z" fill="#0095DA"/>
<path d="M36.9224 82.3711H39.318C39.8261 82.3711 40.2254 82.3169 40.5067 82.2174C40.797 82.1089 41.0148 81.9461 41.16 81.711C41.3052 81.4759 41.3869 81.2317 41.3869 80.9604C41.3869 80.5626 41.2417 80.237 40.9513 79.9838C40.6609 79.7306 40.2072 79.604 39.5811 79.604H36.9224V82.3711ZM35.8063 87.0553V78.6816H39.5357C40.2889 78.6816 40.8515 78.754 41.2417 78.9077C41.6319 79.0614 41.9404 79.3237 42.1763 79.7035C42.4122 80.0833 42.5302 80.5083 42.5302 80.9695C42.5302 81.5663 42.3396 82.0637 41.9495 82.4706C41.5593 82.8775 40.9695 83.1398 40.1619 83.2483C40.4522 83.393 40.6791 83.5286 40.8333 83.6643C41.16 83.9627 41.4685 84.3334 41.7589 84.7765L43.2198 87.0553H41.8224L40.7063 85.3101C40.3796 84.8037 40.1165 84.4239 39.9078 84.1526C39.6991 83.8903 39.5085 83.7004 39.3452 83.5919C39.1819 83.4834 39.0095 83.4111 38.837 83.3659C38.71 83.3387 38.5013 83.3297 38.22 83.3297H36.9315V87.0463H35.8245L35.8063 87.0553Z" fill="#0095DA"/>
<path d="M44.4539 78.6734H45.5609V87.0471H44.4539V78.6734ZM44.1726 78.167L44.9348 76.5664H46.2869L45.0256 78.167H44.1726Z" fill="#0095DA"/>
<path d="M50.4156 84.3607L51.4682 84.2703C51.5135 84.6863 51.6315 85.0299 51.813 85.3012C51.9944 85.5725 52.2757 85.7895 52.6569 85.9523C53.038 86.115 53.4735 86.2055 53.9454 86.2055C54.3719 86.2055 54.7439 86.1422 55.0706 86.0156C55.3972 85.889 55.6332 85.7172 55.7965 85.5001C55.9507 85.2831 56.0324 85.0389 56.0324 84.7857C56.0324 84.5325 55.9598 84.2974 55.8056 84.0985C55.6513 83.8995 55.3972 83.7368 55.0524 83.6011C54.8256 83.5107 54.3265 83.3751 53.5552 83.1942C52.7839 83.0133 52.2394 82.8325 51.9309 82.6697C51.5317 82.4617 51.2322 82.1995 51.0326 81.892C50.833 81.5846 50.7331 81.2319 50.7331 80.8521C50.7331 80.4271 50.8511 80.0382 51.0961 79.6675C51.332 79.2967 51.6859 79.0254 52.1487 78.8265C52.6115 78.6366 53.1287 78.5371 53.6913 78.5371C54.3174 78.5371 54.8619 78.6366 55.3428 78.8355C55.8237 79.0345 56.1867 79.3329 56.4407 79.7217C56.6948 80.1106 56.8309 80.5537 56.8581 81.042L55.7874 81.1234C55.733 80.5898 55.5333 80.192 55.2067 79.9207C54.88 79.6494 54.39 79.5137 53.7457 79.5137C53.1015 79.5137 52.5843 79.6403 52.2757 79.8845C51.9672 80.1287 51.813 80.4271 51.813 80.7707C51.813 81.0691 51.9219 81.3223 52.1396 81.5122C52.3574 81.7112 52.9109 81.9011 53.8183 82.109C54.7257 82.317 55.3428 82.4888 55.6785 82.6426C56.1685 82.8686 56.5315 83.149 56.7583 83.4926C56.9943 83.8362 57.1122 84.2341 57.1122 84.6863C57.1122 85.1384 56.9852 85.5544 56.7311 85.9432C56.477 86.3411 56.105 86.6395 55.6241 86.8656C55.1431 87.0826 54.6078 87.1911 54.0089 87.1911C53.2467 87.1911 52.6115 87.0826 52.0943 86.8566C51.577 86.6305 51.1778 86.3049 50.8874 85.8618C50.597 85.4187 50.4428 84.9123 50.4246 84.3607" fill="#0095DA"/>
<path d="M62.4387 78.167H61.613L60.2881 76.5664H61.6674L62.4387 78.167ZM60.1248 83.6108H62.9741L62.0939 81.2868C61.8217 80.5814 61.6311 80.0027 61.495 79.5506C61.3861 80.0841 61.2409 80.6176 61.0413 81.1511L60.1157 83.6108H60.1248ZM57.702 87.0561L60.9324 78.6824H62.1302L65.5693 87.0561H64.2989L63.3189 84.5151H59.8072L58.8817 87.0561H57.702Z" fill="#0095DA"/>
<path d="M67.7471 78.6729H66.64V87.0466H67.7471V78.6729Z" fill="#0095DA"/>
<path d="M76.9118 83.7641V82.7785H80.4689V85.8802C79.9244 86.3142 79.3618 86.6398 78.7811 86.8568C78.2004 87.0738 77.6015 87.1824 76.9935 87.1824C76.1678 87.1824 75.4146 87.0105 74.7431 86.6579C74.0717 86.3052 73.5544 85.7988 73.2187 85.1296C72.8739 84.4605 72.7015 83.7189 72.7015 82.896C72.7015 82.0731 72.8739 81.3226 73.2187 80.6172C73.5635 79.9119 74.0535 79.3874 74.6978 79.0438C75.342 78.7001 76.077 78.5283 76.9118 78.5283C77.5198 78.5283 78.0733 78.6278 78.5633 78.8177C79.0533 79.0166 79.4435 79.2879 79.7157 79.6406C79.997 79.9933 80.2057 80.4454 80.3509 81.0151L79.3437 81.2864C79.2167 80.8614 79.0624 80.5268 78.8718 80.2826C78.6813 80.0385 78.4181 79.8395 78.0733 79.6949C77.7285 79.5502 77.3383 79.4778 76.9118 79.4778C76.4037 79.4778 75.9681 79.5502 75.5961 79.7129C75.2241 79.8667 74.9246 80.0656 74.6978 80.3188C74.4709 80.572 74.2894 80.8433 74.1715 81.1508C73.9537 81.6662 73.8539 82.2269 73.8539 82.8327C73.8539 83.5833 73.9809 84.2072 74.2441 84.7046C74.4981 85.211 74.8793 85.5818 75.3693 85.8259C75.8593 86.0701 76.3855 86.1876 76.9391 86.1876C77.42 86.1876 77.8918 86.0972 78.3455 85.9164C78.7992 85.7265 79.1531 85.5366 79.3891 85.3286V83.7641H76.9209H76.9118Z" fill="#0095DA"/>
<path d="M86.4578 78.167H85.623L84.2982 76.5664H85.6774L86.4487 78.167H86.4578ZM82.9189 82.9868C82.9189 83.9997 83.1911 84.7954 83.7356 85.3742C84.28 85.9529 84.9606 86.2423 85.7863 86.2423C86.6121 86.2423 87.3108 85.9529 87.8552 85.3651C88.3996 84.7773 88.6628 83.9454 88.6628 82.8693C88.6628 82.1911 88.5448 81.5942 88.318 81.0878C88.0911 80.5814 87.7463 80.1836 87.3017 79.9032C86.8571 79.6229 86.358 79.4873 85.8045 79.4873C85.015 79.4873 84.3435 79.7585 83.7719 80.2921C83.2002 80.8346 82.9189 81.7299 82.9189 82.9868ZM81.7756 82.9778C81.7756 81.5852 82.1476 80.5001 82.9008 79.7133C83.6448 78.9266 84.6158 78.5378 85.8045 78.5378C86.5848 78.5378 87.2835 78.7186 87.9006 79.0894C88.5267 79.4601 88.9985 79.9756 89.3252 80.6357C89.6519 81.2958 89.8152 82.0464 89.8152 82.8874C89.8152 83.7284 89.6428 84.497 89.298 85.1662C88.9532 85.8354 88.4632 86.3418 87.8371 86.6854C87.2109 87.029 86.5304 87.2008 85.7954 87.2008C85.0059 87.2008 84.2982 87.0109 83.6721 86.6311C83.0459 86.2513 82.5741 85.7268 82.2565 85.0758C81.9389 84.4156 81.7756 83.7193 81.7756 82.9868" fill="#0095DA"/>
<path d="M91.2307 87.0556V78.6729H92.374L96.784 85.2561V78.6729H97.8548V87.0556H96.7115L92.3015 80.4724V87.0556H91.2307Z" fill="#0095DA"/>
</g>
<defs>
<clipPath id="clip0_2_696">
<rect width="98" height="89" fill="white"/>
</clipPath>
</defs>
</svg>
