<svg width="20" height="20" viewBox="0 0 20 20" fill="none" xmlns="http://www.w3.org/2000/svg">
<g clip-path="url(#clip0_2_637)">
<path d="M11.5267 13.807C11.6988 13.886 11.8927 13.9041 12.0764 13.8582C12.2601 13.8123 12.4228 13.7052 12.5375 13.5545L12.8333 13.167C12.9886 12.96 13.1899 12.792 13.4213 12.6763C13.6527 12.5606 13.9079 12.5003 14.1667 12.5003H16.6667C17.1087 12.5003 17.5326 12.6759 17.8452 12.9885C18.1577 13.301 18.3333 13.725 18.3333 14.167V16.667C18.3333 17.109 18.1577 17.5329 17.8452 17.8455C17.5326 18.1581 17.1087 18.3337 16.6667 18.3337C12.6884 18.3337 8.8731 16.7533 6.06005 13.9403C3.24701 11.1272 1.66666 7.31191 1.66666 3.33366C1.66666 2.89163 1.84225 2.46771 2.15481 2.15515C2.46737 1.84259 2.8913 1.66699 3.33332 1.66699H5.83332C6.27535 1.66699 6.69927 1.84259 7.01183 2.15515C7.32439 2.46771 7.49999 2.89163 7.49999 3.33366V5.83366C7.49999 6.0924 7.43975 6.34759 7.32404 6.57901C7.20832 6.81044 7.04032 7.01175 6.83332 7.16699L6.44332 7.45949C6.29034 7.57631 6.18251 7.74248 6.13815 7.92978C6.09379 8.11709 6.11564 8.31397 6.19999 8.48699C7.33889 10.8002 9.21201 12.671 11.5267 13.807Z" stroke="#006DBD" stroke-width="1.66667" stroke-linecap="round" stroke-linejoin="round"/>
</g>
<defs>
<clipPath id="clip0_2_637">
<rect width="20" height="20" fill="white"/>
</clipPath>
</defs>
</svg>
