<svg width="16" height="16" viewBox="0 0 16 16" fill="none" xmlns="http://www.w3.org/2000/svg">
<path d="M8.40063 14.5323C9.64063 13.4617 13.3333 9.99501 13.3333 6.66634C13.3333 5.25185 12.7714 3.8953 11.7712 2.89511C10.771 1.89491 9.41445 1.33301 7.99996 1.33301C6.58547 1.33301 5.22892 1.89491 4.22872 2.89511C3.22853 3.8953 2.66663 5.25185 2.66663 6.66634C2.66663 9.99501 6.35929 13.4617 7.59929 14.5323C7.71481 14.6192 7.85543 14.6662 7.99996 14.6662C8.14449 14.6662 8.28511 14.6192 8.40063 14.5323Z" stroke="#0079C1" stroke-width="1.33333" stroke-linecap="round" stroke-linejoin="round"/>
<path d="M8 8.66699C9.10457 8.66699 10 7.77156 10 6.66699C10 5.56242 9.10457 4.66699 8 4.66699C6.89543 4.66699 6 5.56242 6 6.66699C6 7.77156 6.89543 8.66699 8 8.66699Z" stroke="#0079C1" stroke-width="1.33333" stroke-linecap="round" stroke-linejoin="round"/>
</svg>
