<svg width="20" height="20" viewBox="0 0 20 20" fill="none" xmlns="http://www.w3.org/2000/svg">
<path d="M11.5267 13.807C11.6988 13.886 11.8927 13.9041 12.0764 13.8582C12.2602 13.8123 12.4228 13.7052 12.5375 13.5545L12.8334 13.167C12.9886 12.96 13.1899 12.792 13.4213 12.6763C13.6528 12.5606 13.9079 12.5003 14.1667 12.5003H16.6667C17.1087 12.5003 17.5326 12.6759 17.8452 12.9885C18.1578 13.301 18.3334 13.725 18.3334 14.167V16.667C18.3334 17.109 18.1578 17.5329 17.8452 17.8455C17.5326 18.1581 17.1087 18.3337 16.6667 18.3337C12.6884 18.3337 8.87313 16.7533 6.06009 13.9403C3.24704 11.1272 1.66669 7.31191 1.66669 3.33366C1.66669 2.89163 1.84228 2.46771 2.15484 2.15515C2.4674 1.84259 2.89133 1.66699 3.33335 1.66699H5.83335C6.27538 1.66699 6.6993 1.84259 7.01186 2.15515C7.32443 2.46771 7.50002 2.89163 7.50002 3.33366V5.83366C7.50002 6.0924 7.43978 6.34759 7.32407 6.57901C7.20835 6.81044 7.04035 7.01175 6.83335 7.16699L6.44335 7.45949C6.29037 7.57631 6.18254 7.74248 6.13818 7.92978C6.09382 8.11709 6.11567 8.31397 6.20002 8.48699C7.33892 10.8002 9.21204 12.671 11.5267 13.807Z" stroke="#006DBD" stroke-width="1.66667" stroke-linecap="round" stroke-linejoin="round"/>
</svg>
