<svg width="14" height="14" viewBox="0 0 14 14" fill="none" xmlns="http://www.w3.org/2000/svg">
<g clip-path="url(#clip0_2_1240)">
<path d="M6.41669 1.1665V2.33317" stroke="#006DBD" stroke-width="1.16667" stroke-linecap="round" stroke-linejoin="round"/>
<path d="M2.91669 1.1665V2.33317" stroke="#006DBD" stroke-width="1.16667" stroke-linecap="round" stroke-linejoin="round"/>
<path d="M2.91669 1.75H2.33335C2.02393 1.75 1.72719 1.87292 1.5084 2.09171C1.2896 2.3105 1.16669 2.60725 1.16669 2.91667V5.25C1.16669 6.17826 1.53544 7.0685 2.19181 7.72487C2.84819 8.38125 3.73843 8.75 4.66669 8.75C5.59494 8.75 6.48518 8.38125 7.14156 7.72487C7.79794 7.0685 8.16669 6.17826 8.16669 5.25V2.91667C8.16669 2.60725 8.04377 2.3105 7.82498 2.09171C7.60619 1.87292 7.30944 1.75 7.00002 1.75H6.41669" stroke="#006DBD" stroke-width="1.16667" stroke-linecap="round" stroke-linejoin="round"/>
<path d="M4.66669 8.75C4.66669 9.67826 5.03544 10.5685 5.69181 11.2249C6.34819 11.8813 7.23843 12.25 8.16669 12.25C9.09494 12.25 9.98518 11.8813 10.6416 11.2249C11.2979 10.5685 11.6667 9.67826 11.6667 8.75V7" stroke="#006DBD" stroke-width="1.16667" stroke-linecap="round" stroke-linejoin="round"/>
<path d="M11.6667 6.99984C12.311 6.99984 12.8333 6.4775 12.8333 5.83317C12.8333 5.18884 12.311 4.6665 11.6667 4.6665C11.0223 4.6665 10.5 5.18884 10.5 5.83317C10.5 6.4775 11.0223 6.99984 11.6667 6.99984Z" stroke="#006DBD" stroke-width="1.16667" stroke-linecap="round" stroke-linejoin="round"/>
</g>
<defs>
<clipPath id="clip0_2_1240">
<rect width="14" height="14" fill="white"/>
</clipPath>
</defs>
</svg>
