<svg width="24" height="24" viewBox="0 0 24 24" fill="none" xmlns="http://www.w3.org/2000/svg">
<path d="M3.08606 17.5092C3.17183 17.1195 3.1391 16.7131 2.99206 16.3422C1.96883 14.2191 1.72831 11.8029 2.31295 9.51982C2.89759 7.23672 4.26981 5.23348 6.1875 3.86352C8.10519 2.49356 10.4451 1.84494 12.7944 2.03208C15.1438 2.21922 17.3515 3.23011 19.0281 4.88638C20.7048 6.54265 21.7425 8.73787 21.9584 11.0847C22.1742 13.4316 21.5542 15.7793 20.2078 17.7136C18.8613 19.6478 16.875 21.0444 14.5992 21.6569C12.3234 22.2694 9.90444 22.0584 7.76906 21.0612C7.41859 20.9281 7.03777 20.8962 6.67006 20.9692L3.25706 21.9672C3.09242 22.0109 2.91935 22.0118 2.75426 21.9698C2.58917 21.9279 2.43753 21.8444 2.31372 21.7275C2.18992 21.6105 2.09805 21.4638 2.04683 21.3013C1.99561 21.1389 1.98674 20.966 2.02106 20.7992L3.08606 17.5092Z" stroke="#00A7FF" stroke-width="2" stroke-linecap="round" stroke-linejoin="round"/>
</svg>
