<svg width="48" height="39" viewBox="0 0 48 39" fill="none" xmlns="http://www.w3.org/2000/svg">
<path d="M15.814 23.2214V24.06H15.524V22.3107H15.814V23.11H16.6707V22.3107H16.9541V24.06H16.6707V23.2214H15.814Z" fill="#0095DA"/>
<path d="M18.5621 22.3107V22.4286H17.6658V23.051H18.2655V23.1624H17.6658V23.9487H18.5621V24.06H17.3824V22.3107H18.5621Z" fill="#0095DA"/>
<path d="M19.1354 23.3654H19.7614L19.4517 22.6709L19.1354 23.3654ZM19.5638 22.2713L20.3677 24.0599H20.0778L19.8208 23.4768H19.0893L18.8191 24.0599H18.6741L19.4913 22.2713H19.5638Z" fill="#0095DA"/>
<path d="M20.5852 22.3107H20.8686V23.9487H21.7253V24.06H20.5852V22.3107Z" fill="#0095DA"/>
<path d="M23.3201 22.3107V22.4286H22.7006V24.06H22.4172V22.4286H21.7978V22.3107H23.3201Z" fill="#0095DA"/>
<path d="M23.8669 23.2214V24.06H23.5769V22.3107H23.8669V23.11H24.7236V22.3107H25.0069V24.06H24.7236V23.2214H23.8669Z" fill="#0095DA"/>
<path d="M25.6923 23.195C25.6923 23.3195 25.7121 23.4309 25.745 23.5292C25.778 23.6275 25.8307 23.7126 25.8966 23.7782C25.9559 23.8437 26.035 23.8961 26.1207 23.9354C26.2063 23.9682 26.2986 23.9878 26.3974 23.9878C26.4568 23.9878 26.5161 23.9747 26.5688 23.9485C26.6215 23.9223 26.6742 23.8961 26.7269 23.8568C26.7731 23.8175 26.8192 23.7782 26.8522 23.7258C26.8917 23.6799 26.9181 23.6275 26.9444 23.5816L27.063 23.6602C27.0301 23.7192 26.9905 23.7782 26.9378 23.8306C26.8917 23.883 26.8324 23.9354 26.7731 23.9747C26.7072 24.014 26.6413 24.0468 26.5622 24.073C26.4831 24.0992 26.3974 24.1123 26.2986 24.1123C26.2063 24.1123 26.1141 24.0992 26.035 24.0796C25.9493 24.0599 25.8768 24.0271 25.8044 23.9878C25.7319 23.9485 25.6726 23.9027 25.6132 23.8437C25.5605 23.7847 25.5144 23.7258 25.4749 23.6602C25.4353 23.5947 25.409 23.5226 25.3892 23.444C25.3694 23.3654 25.3562 23.2868 25.3562 23.2016C25.3562 23.1164 25.3694 23.0378 25.3892 22.9592C25.409 22.8805 25.4419 22.8085 25.4749 22.743C25.5144 22.6774 25.5605 22.6119 25.6198 22.5529C25.6791 22.494 25.7384 22.4481 25.8109 22.4088C25.8834 22.3695 25.9559 22.3367 26.0416 22.3171C26.1273 22.2909 26.2129 22.2843 26.3118 22.2843C26.404 22.2843 26.4831 22.2974 26.5622 22.3236C26.6413 22.3498 26.7072 22.3826 26.7731 22.4219C26.839 22.4612 26.8917 22.5136 26.9444 22.5661C26.9905 22.6185 27.0367 22.6774 27.0696 22.7364L26.9444 22.8216C26.8719 22.6774 26.7928 22.5726 26.7072 22.5071C26.6215 22.4416 26.5161 22.4088 26.404 22.4088C26.3052 22.4088 26.2129 22.4285 26.1273 22.4612C26.0416 22.5005 25.9691 22.5529 25.9032 22.6185C25.8373 22.684 25.7912 22.7692 25.7516 22.8674C25.7121 22.9657 25.6989 23.0771 25.6989 23.2016" fill="#0095DA"/>
<path d="M27.676 23.3654H28.302L27.9923 22.6709L27.676 23.3654ZM28.1043 22.2713L28.9083 24.0599H28.6183L28.3613 23.4768H27.6298L27.3596 24.0599H27.2147L28.0384 22.2713H28.1109H28.1043Z" fill="#0095DA"/>
<path d="M29.4091 23.1493H29.5739C29.6398 23.1493 29.6991 23.1428 29.7518 23.1231C29.8045 23.1035 29.8507 23.0772 29.8902 23.051C29.9297 23.0183 29.9627 22.979 29.9825 22.9331C30.0022 22.8872 30.0154 22.8348 30.0154 22.7759C30.0154 22.7234 30.0088 22.6776 29.9891 22.6317C29.9693 22.5859 29.9495 22.5531 29.9166 22.5203C29.8836 22.4876 29.8507 22.4679 29.8045 22.4483C29.7584 22.4286 29.7123 22.4221 29.6596 22.4221H29.4091V23.1493ZM29.1258 22.3107H29.7123C29.8177 22.3107 29.9034 22.3238 29.9825 22.3434C30.0615 22.3631 30.1208 22.3958 30.1736 22.4417C30.2263 22.481 30.2658 22.5269 30.2922 22.5859C30.3185 22.6448 30.3317 22.7038 30.3317 22.7693C30.3317 22.8217 30.3186 22.8741 30.2988 22.92C30.279 22.9659 30.2527 23.0117 30.2131 23.051C30.1736 23.0904 30.134 23.1231 30.0813 23.1493C30.0286 23.1755 29.9759 23.2017 29.91 23.2148L30.5294 24.0666H30.1999L29.6068 23.241H29.4091V24.0666H29.1258V22.3172V22.3107Z" fill="#0095DA"/>
<path d="M31.9266 22.3107V22.4286H31.0303V23.051H31.63V23.1624H31.0303V23.9487H31.9266V24.06H30.747V22.3107H31.9266Z" fill="#0095DA"/>
<path d="M15.7153 14.5531V14.9003L13.7514 14.8938V19.9257H12.842V14.8938H10.8848V14.5531H15.7153Z" fill="#ED1C24"/>
<path d="M16.5454 14.5466H17.4746L19.5834 18.6743L19.6229 18.6808L21.6922 14.5466H22.6016L22.6082 19.9257H21.6922V15.5228H21.6592L19.445 19.9323L19.2539 19.9257L17.0067 15.5556L16.9474 15.549V19.9257H16.5454V14.5466Z" fill="#ED1C24"/>
<path d="M23.9657 14.5466H24.8949L26.9971 18.6743H27.0366L29.1125 14.5531L30.0219 14.5466V19.9257H29.1125L29.1059 15.5228H29.0729L26.8587 19.9257H26.6742L24.427 15.549H24.3677V19.9257H23.9657V14.5466Z" fill="#ED1C24"/>
<path d="M32.2098 17.2525C32.2098 17.6325 32.2625 17.9732 32.3746 18.2681C32.4932 18.5694 32.6513 18.8184 32.849 19.0281C33.0467 19.2312 33.284 19.3884 33.5608 19.4998C33.831 19.6112 34.1275 19.6636 34.4504 19.6636C34.6415 19.6636 34.8194 19.6309 34.9974 19.5588C35.1753 19.4867 35.3335 19.3884 35.4916 19.2705C35.6432 19.1526 35.775 19.0215 35.9002 18.8708C36.0188 18.7201 36.1177 18.5695 36.1968 18.4188L36.579 18.6612C36.4669 18.8381 36.3351 19.015 36.1836 19.1788C36.032 19.3491 35.8541 19.4933 35.6564 19.6178C35.4587 19.7423 35.2346 19.8536 34.9776 19.9257C34.7272 20.0043 34.4438 20.0436 34.1341 20.0371C33.8375 20.0371 33.5542 20.0043 33.2906 19.9388C33.027 19.8667 32.7831 19.775 32.5591 19.6505C32.335 19.5326 32.1439 19.3819 31.966 19.2115C31.7947 19.0412 31.6431 18.8512 31.5245 18.6415C31.4058 18.4319 31.3136 18.2156 31.2477 17.9798C31.1818 17.7439 31.1488 17.4949 31.1488 17.246C31.1488 16.9904 31.1818 16.748 31.2477 16.5121C31.3136 16.2697 31.4058 16.0469 31.531 15.8373C31.6563 15.6276 31.8078 15.4376 31.9858 15.2607C32.1637 15.0904 32.3614 14.9397 32.5854 14.8086C32.8095 14.6841 33.0533 14.5924 33.3235 14.5138C33.5937 14.4483 33.8771 14.409 34.1736 14.409C34.4636 14.409 34.7272 14.4483 34.971 14.5269C35.2148 14.6055 35.4323 14.7103 35.6366 14.8348C35.8409 14.9593 36.0188 15.11 36.1704 15.2738C36.3286 15.4442 36.4604 15.6145 36.5724 15.798L36.177 16.06C35.9529 15.6276 35.6959 15.3066 35.4191 15.1035C35.1358 14.9003 34.8194 14.8021 34.4504 14.8021C34.1407 14.8021 33.8441 14.861 33.5739 14.9724C33.2972 15.0904 33.0599 15.2476 32.8622 15.4573C32.6645 15.6735 32.4998 15.9225 32.3877 16.2304C32.2691 16.5318 32.2098 16.8725 32.2098 17.246" fill="#ED1C24"/>
<path d="M18.7531 3.28373C14.4103 -1.03402 7.43148 -1.09299 3.16117 3.15269C-1.10913 7.39837 -1.04323 14.3369 3.29956 18.6546L8.31454 23.6407L10.8912 21.0789L5.87624 16.0928C3.39841 13.6293 3.01619 9.88811 4.74277 7.08387C4.67028 7.8308 4.92729 8.60393 5.5072 9.1805C6.53524 10.2092 8.20251 10.2092 9.23713 9.1805C10.2652 8.15839 10.2652 6.49419 9.23713 5.47209C8.65721 4.89551 7.8796 4.64654 7.12834 4.71861C9.94885 3.00199 13.7117 3.38856 16.1961 5.84555L21.2111 10.8382L23.7878 8.26978L18.7728 3.28373H18.7531Z" fill="#00C0F3"/>
<path d="M44.3815 3.14616C40.1112 -1.09952 33.1325 -1.04055 28.7897 3.2772L23.7747 8.26324L26.358 10.8251L31.3729 5.83902C33.8508 3.37548 37.6136 2.99546 40.4341 4.71208C39.6763 4.64001 38.8987 4.89553 38.3254 5.47211C37.2907 6.49421 37.2907 8.15186 38.3254 9.18052C39.3534 10.2026 41.0272 10.2026 42.0553 9.18052C42.6352 8.60395 42.8856 7.83082 42.8197 7.08389C44.5463 9.88813 44.1575 13.6293 41.6797 16.0928L36.6647 21.0789L39.2414 23.6407L44.2563 18.6547C48.5991 14.3369 48.6584 7.39839 44.3881 3.15271" fill="#0053A4"/>
<path d="M36.6514 21.0722L26.3118 31.3522C26.3381 31.1819 26.3513 31.0181 26.3513 30.8674C26.3513 29.4194 25.1717 28.2466 23.7153 28.2466C22.2589 28.2466 21.0793 29.4194 21.0793 30.8674C21.0793 30.9788 21.0925 31.1033 21.1057 31.2278L10.8912 21.0722L8.31454 23.634L22.483 37.7208C22.8389 38.0811 23.3067 38.2515 23.7746 38.2515C24.2425 38.2515 24.7104 38.0746 25.0663 37.7208L39.2347 23.634L36.658 21.0722H36.6514Z" fill="#0095DA"/>
</svg>
