<svg width="52" height="22" viewBox="0 0 52 22" fill="none" xmlns="http://www.w3.org/2000/svg">
<g opacity="0.6">
<path d="M13.1663 5.52131L13.5742 5.11351L13.1582 4.71401C12.1306 3.72696 10.7454 2.96582 8.81805 2.96582C5.34106 2.96582 2.41028 5.7958 2.41028 9.29307C2.41028 12.7904 5.34106 15.6203 8.81805 15.6203C10.6798 15.6203 12.1163 15.0033 13.2442 13.8358C14.427 12.6505 14.7678 11.0201 14.7678 9.75731C14.7678 9.36301 14.7346 8.98454 14.6702 8.66237L14.5793 8.20801H8.25283V10.9167H11.8929C11.763 11.3663 11.5673 11.6919 11.3284 11.9311C10.8545 12.3994 10.1359 12.9179 8.81805 12.9179C6.8191 12.9179 5.24891 11.3118 5.24891 9.29307C5.24891 7.27441 6.8191 5.66829 8.81805 5.66829C9.9004 5.66829 10.6834 6.09085 11.2726 6.64219L11.6719 7.01579L12.0585 6.62916L13.1663 5.52131Z" fill="white" stroke="white" stroke-width="1.13043"/>
<path d="M18.7394 15.6143C21.0673 15.6143 22.9624 13.7911 22.9624 11.3418C22.9624 8.87893 21.0661 7.06934 18.7394 7.06934C16.4127 7.06934 14.5165 8.87893 14.5165 11.3418C14.5165 13.7911 16.4115 15.6143 18.7394 15.6143ZM18.7394 9.66036C19.5036 9.66036 20.229 10.2911 20.229 11.3418C20.229 12.3822 19.5015 13.0233 18.7394 13.0233C17.9783 13.0233 17.2499 12.3771 17.2499 11.3418C17.2499 10.2963 17.9763 9.66036 18.7394 9.66036Z" fill="white" stroke="white" stroke-width="1.13043"/>
<path d="M26.9429 13.0233H26.9398C26.1787 13.0233 25.4501 12.3771 25.4501 11.3418C25.4501 10.2963 26.1766 9.66036 26.9398 9.66036C27.7039 9.66036 28.4293 10.2911 28.4293 11.3418C28.4293 12.3852 27.6998 13.0275 26.9429 13.0233ZM26.9336 15.6143C29.2615 15.6143 31.1565 13.7911 31.1565 11.3418C31.1565 8.87893 29.2602 7.06934 26.9336 7.06934C24.6068 7.06934 22.7106 8.87893 22.7106 11.3418C22.7106 13.7917 24.6124 15.6143 26.9336 15.6143Z" fill="white" stroke="white" stroke-width="1.13043"/>
<path d="M39.153 7.85757V7.29237H36.4753V7.38472C36.0608 7.18743 35.5693 7.06338 35.0291 7.06338C32.8558 7.06338 30.9113 8.96095 30.9113 11.3545C30.9113 12.9573 31.7885 14.3297 33.0239 15.0575L32.9743 15.0781L31.557 15.6661L31.0349 15.8827L31.2516 16.4048C31.7209 17.5355 32.968 18.9443 35.06 18.9443C36.123 18.9443 37.1604 18.6319 37.9343 17.8822C38.713 17.1279 39.153 16.0008 39.153 14.517V7.85757ZM33.7123 15.382C34.1307 15.5331 34.5748 15.6145 35.0291 15.6145C35.5421 15.6145 36.0131 15.504 36.4165 15.3213C36.3505 15.6145 36.2343 15.827 36.096 15.9756C35.8841 16.2033 35.5533 16.3532 35.06 16.3532C34.3728 16.3532 33.9144 15.8652 33.7123 15.382ZM35.1714 9.66061C35.9041 9.66061 36.5867 10.2999 36.5867 11.3606C36.5867 12.4003 35.9118 13.0297 35.1714 13.0297C34.3855 13.0297 33.6694 12.3712 33.6694 11.3606C33.6694 10.3241 34.3925 9.66061 35.1714 9.66061ZM42.006 3.92752V3.3623H39.2478V15.3979H42.006V3.92752Z" fill="white" stroke="white" stroke-width="1.13043"/>
<path d="M48.1663 12.0966L47.7003 11.786L47.3853 12.2491C47.0415 12.7547 46.624 13.0353 46.0269 13.0353C45.7024 13.0353 45.4546 12.9614 45.2585 12.8377C45.2057 12.8045 45.1542 12.766 45.1043 12.7219L49.3999 10.9415L49.9142 10.7282L49.7088 10.2107L49.5437 9.79516C49.2025 8.88516 48.1195 7.0752 45.8413 7.0752C43.593 7.0752 41.8287 8.85644 41.8287 11.3477C41.8287 13.7197 43.5788 15.6202 46.0208 15.6202C47.9834 15.6202 49.119 14.4151 49.5841 13.7244L49.9014 13.2534L49.4289 12.9384L48.1663 12.0966ZM46.2319 9.67729L44.7734 10.2813C45.0594 9.84851 45.5351 9.63531 45.897 9.63531C46.0216 9.63531 46.1334 9.65091 46.2319 9.67729Z" fill="white" stroke="white" stroke-width="1.13043"/>
</g>
<path d="M8.81802 15.0544C5.64297 15.0544 2.97546 12.4673 2.97546 9.29231C2.97546 6.11732 5.64297 3.53027 8.81802 3.53027C10.5757 3.53027 11.8259 4.21727 12.7666 5.12088L11.6588 6.22873C10.9842 5.59744 10.0682 5.10231 8.81802 5.10231C6.49707 5.10231 4.68366 6.97141 4.68366 9.29231C4.68366 11.6132 6.49707 13.4824 8.81802 13.4824C10.3219 13.4824 11.176 12.8759 11.7269 12.3312C12.1786 11.8793 12.4695 11.2357 12.5809 10.3507H8.81802V8.77246H14.1158C14.1715 9.05093 14.2025 9.39134 14.2025 9.75654C14.2025 10.9386 13.8807 12.3993 12.8409 13.439C11.8259 14.4912 10.5385 15.0544 8.81802 15.0544Z" fill="#4285F4"/>
<path d="M22.397 11.3411C22.397 13.4763 20.7569 15.0483 18.7393 15.0483C16.7217 15.0483 15.0815 13.4763 15.0815 11.3411C15.0815 9.19341 16.7217 7.63379 18.7393 7.63379C20.7569 7.63379 22.397 9.19341 22.397 11.3411ZM20.7941 11.3411C20.7941 10.0042 19.8409 9.09439 18.7393 9.09439C17.6376 9.09439 16.6845 10.0104 16.6845 11.3411C16.6845 12.6593 17.6376 13.5877 18.7393 13.5877C19.8409 13.5877 20.7941 12.6655 20.7941 11.3411Z" fill="#E94235"/>
<path d="M30.5913 11.3411C30.5913 13.4763 28.9511 15.0483 26.9335 15.0483C24.922 15.0483 23.2758 13.4763 23.2758 11.3411C23.2758 9.19341 24.9159 7.63379 26.9335 7.63379C28.9511 7.63379 30.5913 9.19341 30.5913 11.3411ZM28.9945 11.3411C28.9945 10.0042 28.0414 9.09439 26.9397 9.09439C25.8381 9.09439 24.8849 10.0104 24.8849 11.3411C24.8849 12.6593 25.8381 13.5877 26.9397 13.5877C28.0414 13.5939 28.9945 12.6655 28.9945 11.3411Z" fill="#FABB05"/>
<path d="M38.5878 7.85688V14.5163C38.5878 17.2582 36.9724 18.3784 35.06 18.3784C33.2589 18.3784 32.1821 17.1715 31.7735 16.1874L33.1909 15.5995C33.4446 16.206 34.0636 16.9178 35.06 16.9178C36.2854 16.9178 37.0405 16.1565 37.0405 14.7392V14.2069H36.9847C36.6196 14.6587 35.9141 15.0486 35.029 15.0486C33.1723 15.0486 31.4764 13.4333 31.4764 11.3538C31.4764 9.26186 33.1785 7.62793 35.029 7.62793C35.9141 7.62793 36.6196 8.02403 36.9847 8.45722H37.0405V7.85688H38.5878ZM37.1519 11.3599C37.1519 10.0541 36.2792 9.09471 35.1714 9.09471C34.0449 9.09471 33.1042 10.0478 33.1042 11.3599C33.1042 12.6535 34.0449 13.5942 35.1714 13.5942C36.2792 13.5942 37.1519 12.6535 37.1519 11.3599Z" fill="#4285F4"/>
<path d="M41.4407 3.92676V14.832H39.813V3.92676H41.4407Z" fill="#34A853"/>
<path d="M47.8527 12.5671L49.1153 13.4089C48.7068 14.0154 47.7228 15.0552 46.0207 15.0552C43.9103 15.0552 42.3939 13.4275 42.3939 11.3479C42.3939 9.14456 43.9288 7.64062 45.8413 7.64062C47.766 7.64062 48.7068 9.16935 49.0163 9.99871L49.1834 10.4195L44.2259 12.4744C44.6035 13.2171 45.1976 13.6007 46.0269 13.6007C46.8563 13.6007 47.4319 13.1861 47.8527 12.5671ZM43.9598 11.2303L47.2772 9.85635C47.0915 9.39212 46.5468 9.07032 45.897 9.07032C45.0676 9.07032 43.9165 9.80066 43.9598 11.2303Z" fill="#E94235"/>
</svg>
