<svg width="20" height="20" viewBox="0 0 20 20" fill="none" xmlns="http://www.w3.org/2000/svg">
<g clip-path="url(#clip0_2_531)">
<path d="M9.18084 2.34488C9.21654 2.15372 9.31798 1.98106 9.46758 1.85681C9.61719 1.73256 9.80553 1.66455 10 1.66455C10.1945 1.66455 10.3828 1.73256 10.5324 1.85681C10.682 1.98106 10.7835 2.15372 10.8192 2.34488L11.695 6.97655C11.7572 7.30584 11.9172 7.60873 12.1542 7.84569C12.3912 8.08265 12.694 8.24267 13.0233 8.30488L17.655 9.18071C17.8462 9.21642 18.0188 9.31786 18.1431 9.46746C18.2673 9.61706 18.3353 9.80541 18.3353 9.99988C18.3353 10.1943 18.2673 10.3827 18.1431 10.5323C18.0188 10.6819 17.8462 10.7833 17.655 10.819L13.0233 11.6949C12.694 11.7571 12.3912 11.9171 12.1542 12.1541C11.9172 12.391 11.7572 12.6939 11.695 13.0232L10.8192 17.6549C10.7835 17.846 10.682 18.0187 10.5324 18.1429C10.3828 18.2672 10.1945 18.3352 10 18.3352C9.80553 18.3352 9.61719 18.2672 9.46758 18.1429C9.31798 18.0187 9.21654 17.846 9.18084 17.6549L8.305 13.0232C8.2428 12.6939 8.08277 12.391 7.84581 12.1541C7.60885 11.9171 7.30596 11.7571 6.97667 11.6949L2.345 10.819C2.15384 10.7833 1.98118 10.6819 1.85693 10.5323C1.73269 10.3827 1.66467 10.1943 1.66467 9.99988C1.66467 9.80541 1.73269 9.61706 1.85693 9.46746C1.98118 9.31786 2.15384 9.21642 2.345 9.18071L6.97667 8.30488C7.30596 8.24267 7.60885 8.08265 7.84581 7.84569C8.08277 7.60873 8.2428 7.30584 8.305 6.97655L9.18084 2.34488Z" stroke="#0079C1" stroke-width="1.66667" stroke-linecap="round" stroke-linejoin="round"/>
<path d="M16.6666 1.6665V4.99984" stroke="#0079C1" stroke-width="1.66667" stroke-linecap="round" stroke-linejoin="round"/>
<path d="M18.3333 3.3335H15" stroke="#0079C1" stroke-width="1.66667" stroke-linecap="round" stroke-linejoin="round"/>
<path d="M3.33329 18.3333C4.25377 18.3333 4.99996 17.5871 4.99996 16.6667C4.99996 15.7462 4.25377 15 3.33329 15C2.41282 15 1.66663 15.7462 1.66663 16.6667C1.66663 17.5871 2.41282 18.3333 3.33329 18.3333Z" stroke="#0079C1" stroke-width="1.66667" stroke-linecap="round" stroke-linejoin="round"/>
</g>
<defs>
<clipPath id="clip0_2_531">
<rect width="20" height="20" fill="white"/>
</clipPath>
</defs>
</svg>
