<svg width="16" height="16" viewBox="0 0 16 16" fill="none" xmlns="http://www.w3.org/2000/svg">
<path d="M1.33331 6.33369C1.33333 5.59182 1.55838 4.86741 1.97874 4.25613C2.3991 3.64485 2.99499 3.17546 3.68772 2.90995C4.38045 2.64445 5.13742 2.59532 5.85865 2.76905C6.57989 2.94278 7.23146 3.33121 7.72731 3.88302C7.76224 3.92036 7.80446 3.95013 7.85136 3.97049C7.89827 3.99084 7.94885 4.00134 7.99998 4.00134C8.05111 4.00134 8.10169 3.99084 8.1486 3.97049C8.1955 3.95013 8.23772 3.92036 8.27265 3.88302C8.76694 3.32762 9.41866 2.93593 10.1411 2.76009C10.8635 2.58424 11.6223 2.63258 12.3166 2.89867C13.0108 3.16477 13.6076 3.63599 14.0274 4.24962C14.4472 4.86325 14.6702 5.59019 14.6666 6.33369C14.6666 7.86035 13.6666 9.00035 12.6666 10.0004L9.00531 13.5424C8.88109 13.685 8.72793 13.7996 8.55601 13.8786C8.38409 13.9575 8.19734 13.9989 8.00817 14.0001C7.819 14.0013 7.63175 13.9622 7.45884 13.8855C7.28593 13.8088 7.13133 13.6961 7.00531 13.555L3.33331 10.0004C2.33331 9.00035 1.33331 7.86702 1.33331 6.33369Z" stroke="#FCFCFC" stroke-width="1.33333" stroke-linecap="round" stroke-linejoin="round"/>
<path d="M2.14667 8.66634H6.33333L6.66667 7.99967L8 10.9997L9.33333 6.33301L10.3333 8.66634H13.8467" stroke="#FCFCFC" stroke-width="1.33333" stroke-linecap="round" stroke-linejoin="round"/>
</svg>
