<svg width="14" height="14" viewBox="0 0 14 14" fill="none" xmlns="http://www.w3.org/2000/svg">
<g clip-path="url(#clip0_2_1081)">
<path d="M11.6667 7.58343C11.6667 10.5001 9.62501 11.9584 7.19834 12.8043C7.07127 12.8473 6.93324 12.8453 6.80751 12.7984C4.37501 11.9584 2.33334 10.5001 2.33334 7.58343V3.5001C2.33334 3.34539 2.3948 3.19702 2.5042 3.08762C2.61359 2.97822 2.76197 2.91677 2.91668 2.91677C4.08334 2.91677 5.54168 2.21677 6.55668 1.3301C6.68026 1.22452 6.83747 1.1665 7.00001 1.1665C7.16255 1.1665 7.31976 1.22452 7.44334 1.3301C8.46418 2.2226 9.91668 2.91677 11.0833 2.91677C11.2381 2.91677 11.3864 2.97822 11.4958 3.08762C11.6052 3.19702 11.6667 3.34539 11.6667 3.5001V7.58343Z" stroke="#006DBD" stroke-width="1.16667" stroke-linecap="round" stroke-linejoin="round"/>
<path d="M5.25 6.99992L6.41667 8.16659L8.75 5.83325" stroke="#006DBD" stroke-width="1.16667" stroke-linecap="round" stroke-linejoin="round"/>
</g>
<defs>
<clipPath id="clip0_2_1081">
<rect width="14" height="14" fill="white"/>
</clipPath>
</defs>
</svg>
