<svg width="16" height="16" viewBox="0 0 16 16" fill="none" xmlns="http://www.w3.org/2000/svg">
<g clip-path="url(#clip0_2_778)">
<path d="M9.22137 11.045C9.35906 11.1082 9.51418 11.1227 9.66117 11.086C9.80816 11.0493 9.93826 10.9636 10.03 10.843L10.2667 10.533C10.3909 10.3674 10.5519 10.233 10.7371 10.1404C10.9222 10.0479 11.1264 9.99967 11.3334 9.99967H13.3334C13.687 9.99967 14.0261 10.1402 14.2762 10.3902C14.5262 10.6402 14.6667 10.9794 14.6667 11.333V13.333C14.6667 13.6866 14.5262 14.0258 14.2762 14.2758C14.0261 14.5259 13.687 14.6663 13.3334 14.6663C10.1508 14.6663 7.09853 13.4021 4.84809 11.1516C2.59766 8.90119 1.33337 5.84894 1.33337 2.66634C1.33337 2.31272 1.47385 1.97358 1.7239 1.72353C1.97395 1.47348 2.31309 1.33301 2.66671 1.33301H4.66671C5.02033 1.33301 5.35947 1.47348 5.60952 1.72353C5.85956 1.97358 6.00004 2.31272 6.00004 2.66634V4.66634C6.00004 4.87333 5.95185 5.07749 5.85928 5.26263C5.76671 5.44777 5.6323 5.60881 5.46671 5.73301L5.15471 5.96701C5.03232 6.06046 4.94605 6.1934 4.91057 6.34324C4.87508 6.49308 4.89256 6.65059 4.96004 6.78901C5.87116 8.63959 7.36966 10.1362 9.22137 11.045Z" stroke="#0079C1" stroke-width="1.33333" stroke-linecap="round" stroke-linejoin="round"/>
</g>
<defs>
<clipPath id="clip0_2_778">
<rect width="16" height="16" fill="white"/>
</clipPath>
</defs>
</svg>
