<svg width="20" height="20" viewBox="0 0 20 20" fill="none" xmlns="http://www.w3.org/2000/svg">
<path d="M5 15H11.6667" stroke="#0079C1" stroke-width="1.66667" stroke-linecap="round" stroke-linejoin="round"/>
<path d="M2.5 18.3335H17.5" stroke="#0079C1" stroke-width="1.66667" stroke-linecap="round" stroke-linejoin="round"/>
<path d="M11.6666 18.3332C13.2137 18.3332 14.6975 17.7186 15.7914 16.6246C16.8854 15.5307 17.5 14.0469 17.5 12.4998C17.5 10.9527 16.8854 9.46901 15.7914 8.37505C14.6975 7.28109 13.2137 6.6665 11.6666 6.6665H10.8333" stroke="#0079C1" stroke-width="1.66667" stroke-linecap="round" stroke-linejoin="round"/>
<path d="M7.5 11.6665H9.16667" stroke="#0079C1" stroke-width="1.66667" stroke-linecap="round" stroke-linejoin="round"/>
<path d="M7.49998 10C7.05795 10 6.63403 9.8244 6.32147 9.51184C6.00891 9.19928 5.83331 8.77536 5.83331 8.33333V5H10.8333V8.33333C10.8333 8.77536 10.6577 9.19928 10.3452 9.51184C10.0326 9.8244 9.60867 10 9.16665 10H7.49998Z" stroke="#0079C1" stroke-width="1.66667" stroke-linecap="round" stroke-linejoin="round"/>
<path d="M10 4.99984V2.49984C10 2.27882 9.91222 2.06686 9.75594 1.91058C9.59966 1.7543 9.3877 1.6665 9.16669 1.6665H7.50002C7.27901 1.6665 7.06705 1.7543 6.91076 1.91058C6.75448 2.06686 6.66669 2.27882 6.66669 2.49984V4.99984" stroke="#0079C1" stroke-width="1.66667" stroke-linecap="round" stroke-linejoin="round"/>
</svg>
