<svg width="20" height="20" viewBox="0 0 20 20" fill="none" xmlns="http://www.w3.org/2000/svg">
<g clip-path="url(#clip0_2_391)">
<path d="M11.5267 13.8067C11.6988 13.8857 11.8927 13.9038 12.0764 13.8579C12.2601 13.812 12.4228 13.7049 12.5375 13.5542L12.8333 13.1667C12.9886 12.9597 13.1899 12.7917 13.4213 12.676C13.6527 12.5603 13.9079 12.5 14.1667 12.5H16.6667C17.1087 12.5 17.5326 12.6756 17.8452 12.9882C18.1577 13.3007 18.3333 13.7247 18.3333 14.1667V16.6667C18.3333 17.1087 18.1577 17.5326 17.8452 17.8452C17.5326 18.1578 17.1087 18.3334 16.6667 18.3334C12.6884 18.3334 8.8731 16.753 6.06005 13.94C3.24701 11.1269 1.66666 7.3116 1.66666 3.33335C1.66666 2.89133 1.84225 2.4674 2.15481 2.15484C2.46737 1.84228 2.8913 1.66669 3.33332 1.66669H5.83332C6.27535 1.66669 6.69927 1.84228 7.01183 2.15484C7.32439 2.4674 7.49999 2.89133 7.49999 3.33335V5.83335C7.49999 6.0921 7.43975 6.34728 7.32404 6.57871C7.20832 6.81014 7.04032 7.01144 6.83332 7.16669L6.44332 7.45919C6.29034 7.576 6.18251 7.74217 6.13815 7.92948C6.09379 8.11678 6.11564 8.31367 6.19999 8.48669C7.33889 10.7999 9.21201 12.6707 11.5267 13.8067Z" stroke="#FCFCFC" stroke-width="1.66667" stroke-linecap="round" stroke-linejoin="round"/>
</g>
<defs>
<clipPath id="clip0_2_391">
<rect width="20" height="20" fill="white"/>
</clipPath>
</defs>
</svg>
